<svg class="arrow" viewBox="0 0 59.39 78.47">
<path d="M58 33.46c-.25-.57-6.24-9.79-6.32-10.09s5.79 8.14 5.76 7.8c-.27-2.35-2.27-5.8-3.37-7.13a9.74 9.74 0 00-3.14-3.8c-.42-.51-1.2-1.78-1.62-2.29-1.76-.82-2.31-3-3.56-4.51-.7-.85-3.44-3.84-4.14-4.69-.09-.77-.39-.59-.67-.93s-.59-.59-.86-.93a1.55 1.55 0 01-.29-.89s-1 .81-1.11.64 0-.61-.1-.78-1 .81-1.39.3-1.49-2.52-1.95-2.42a2.93 2.93 0 00-1.15-.59c0-.39 1-.39.07-1.28-.54-.34-1.04.13-2.16.13A2.56 2.56 0 0030.19.64L30 .44v.18h-.17l-.19.12C29.4.61 29 .35 28.36 0c.89 1.2-.8.1-1.1.4-.15.15-1.9 1.92-2.31 2.42-.9 1.11-1.26 2.38-2.21 2.63-.6.6-2.49 2.46-2.75 3.42a3.87 3.87 0 01-1.85 2.2c-1 1.38-1.18 2-1.83 1.93 0 0-1.51 1.16-1.67 1.31a5.39 5.39 0 01-2.15 1.46c-.75.75-1 2.35-1.71 3.11-.6.6-1.25.55-1.7 1-.15.15.24 1.15.09 1.3S6.86 23.84 6.71 24c-1.5 1.5-4.56 3.86-5.87 5.87.16-.16 3.16-2.67 4.3-3.39-.6.6-4.5 5-4.45 5.63s-.15.78-.56 1.25c-.66.76 1.37-.66 1.57-.16a2.55 2.55 0 01-.39 1.13c-.14.15 7.62-6.95 7.62-6.95L1 36.51c3.6-3.92.3 1 1 1.68.65.42 7.81-7.06 7.62-6.45a22.08 22.08 0 01-3.31 5.08c1.06-.13 6.34-6.56 7.05-6.94 1.34-.73-5.74 7.26-4.36 5.88s5.9-5.61 7.39-7.11c.11-.8.91-.9 1.36-1.35A6.87 6.87 0 0120 23.59c.81-.8 3.41-3.13 4.49-4.15-.13 1.69-.49 4.56-.49 5.4 0 2.14.55 4.47.55 5.9s-.28 4.25-.28 5.32c.55 1.79-.11 1-.11 2.81 0 .35-.23 3-.23 3.37a17.1 17.1 0 00-.25 4c-.55 2.86 1.48 19.92 1.48 19.92l1-14V74s.7-9.49 1.25-8.42v5.73S28 70 28.58 70.7c.41.5.89-5.84 1.41-4.75.13.26.08 5.37.46 6.56.11.35 1-1 1.19-.69s.23 1.3.37 1.63c.39.86 1.14-18 1.31-16.77.22 1.51.37 21 .38 21.39 0 .7.09.33.11 0 .19-3.47 1.52-4.85 1.06-7.46l1-3a5.73 5.73 0 00-.46-1.34S36.28 65 36.83 65c.55-6.44-1-16.4-.5-22.12 0-1.43 1.09-2.86.54-4.29s.55-2.87-.54-3.94c0-2.5.82-7.29.27-9.44 0-1 .28-3.83.44-5.63L40 23.7c.42.51 1.41 1 1.69 1.31.14.17 1.14 1.71 1.28 1.88s.86 1.31 1 1.48c1.44 1.09 4.21 5.77 5.93 7.19.32-.27-.7-3.05-1-3.49.33.27 2.09 3.22 2.36 2.85s.62-.83.92-.8c.47-.1.53 1.31 1.33.94s-3.68-6.89-3.22-7c.75.24 6.11 9.6 6.53 10.11 0 0 .11 0 .22-.06a11.07 11.07 0 00-1.23-2.94c-.16-.23 2.1 2.24 2.32 2.08a1.6 1.6 0 01.37-.25c.46-.1-.37.88.6.07.9-1.13-.63-2.41-1.1-3.61z" fill="#FFFFFF"></path>
</svg>