<svg xmlns="http://www.w3.org/2000/svg" viewBox="0 0 200 200" width="200" height="200" preserveAspectRatio="xMidYMid meet" style="width: 100%; height: 100%; transform: translate3d(0px, 0px, 0px);"><defs><clipPath id="__lottie_element_16"><rect width="200" height="200" x="0" y="0"></rect></clipPath><mask id="__lottie_element_20" mask-type="alpha"><g transform="matrix(1,0,0,1,100,100)" opacity="1" style="display: block;"><g opacity="1" transform="matrix(1,0,0,1,0,0)"><path fill="rgb(181,31,31)" fill-opacity="1" d=" M61.5,-60 C61.5,-60 2,-13.5 -32,33.5"></path><path stroke-linecap="round" stroke-linejoin="miter" fill-opacity="0" stroke-miterlimit="4" stroke="rgb(242,73,47)" stroke-opacity="1" stroke-width="25" d=" M61.5,-60 C61.5,-60 2,-13.5 -32,33.5"></path></g></g></mask><mask id="__lottie_element_26" mask-type="alpha"><g transform="matrix(1,0,0,1,100,100)" opacity="1" style="display: block;"><g opacity="1" transform="matrix(1,0,0,1,0,0)"><path fill="rgb(181,31,31)" fill-opacity="1" d=" M-43.5,-38.5 C-43.5,-38.5 9.5,1.5 31.5,35"></path><path stroke-linecap="round" stroke-linejoin="miter" fill-opacity="0" stroke-miterlimit="4" stroke="rgb(242,73,47)" stroke-opacity="1" stroke-width="25" d=" M-43.5,-38.5 C-43.5,-38.5 9.5,1.5 31.5,35"></path></g></g></mask></defs><g clip-path="url(#__lottie_element_16)"><g mask="url(#__lottie_element_20)" style="display: block;"><g transform="matrix(1,0,0,1,4.5,24.5)" opacity="1"><g class="single-line-container" opacity="1" transform="matrix(1,0,0,1,96.197998046875,74.24700164794922)"><path class="single-line" fill="rgb(181,31,31)" fill-opacity="1" d=" M-3.196000099182129,14.413000106811523 C-3.196000099182129,14.413000106811523 -3.2739999294281006,16.658000946044922 -4.202000141143799,16.503000259399414 C-5.517000198364258,16.735000610351562 -11.397000312805176,22.07200050354004 -12.711999893188477,22.30500030517578 C-14.800000190734863,23.309999465942383 -16.735000610351562,25.2450008392334 -18.12700080871582,27.72100067138672 C-18.204999923706055,29.964000701904297 -19.520000457763672,30.19499969482422 -21.066999435424805,31.743000030517578 C-23.1560001373291,32.74800109863281 -27.64299964904785,38.319000244140625 -28.64900016784668,40.40800094604492 C-28.881000518798828,41.7239990234375 -33.52199935913086,40.94900131225586 -34.8380012512207,41.18199920654297 C-34.8380012512207,41.18199920654297 -35.68899917602539,44.19900131225586 -35.68899917602539,44.19900131225586 C-35.68899917602539,44.19900131225586 -38.62799835205078,42.80699920654297 -38.62799835205078,42.80699920654297 C-38.62799835205078,42.80699920654297 -39.71099853515625,41.722999572753906 -39.71099853515625,41.722999572753906 C-39.71099853515625,41.722999572753906 -40.40700149536133,40.25299835205078 -40.40700149536133,40.25299835205078 C-40.40700149536133,40.25299835205078 -40.948001861572266,34.29800033569336 -40.948001861572266,34.29800033569336 C-40.948001861572266,34.29800033569336 -38.9370002746582,30.1200008392334 -38.9370002746582,30.1200008392334 C-38.9370002746582,30.1200008392334 -36.46099853515625,28.726999282836914 -37.3120002746582,26.32900047302246 C-37.46699905395508,25.400999069213867 -33.05699920654297,22.072999954223633 -31.89699935913086,20.913000106811523 C-30.736000061035156,19.753000259399414 -32.74700164794922,18.514999389648438 -32.361000061035156,18.128000259399414 C-31.974000930786133,17.740999221801758 -31.04599952697754,17.895999908447266 -30.659000396728516,17.510000228881836 C-30.27199935913086,17.12299919128418 -31.895999908447266,15.49899959564209 -31.895999908447266,15.49899959564209 C-31.895999908447266,15.49899959564209 -30.58099937438965,15.267000198364258 -29.808000564575195,14.493000030517578 C-29.034000396728516,13.720000267028809 -30.117000579833984,12.63700008392334 -29.343000411987305,11.86299991607666 C-28.56999969482422,11.08899974822998 -27.2549991607666,10.857000350952148 -25.55299949645996,10.23799991607666 C-23.618999481201172,8.303999900817871 -16.732999801635742,0.8769999742507935 -14.798999786376953,-1.0570000410079956 C-11.317999839782715,-4.538000106811523 -8.378000259399414,-8.562000274658203 -6.366000175476074,-12.73900032043457 C-5.205999851226807,-13.899999618530273 -0.9610000252723694,-16.520999908447266 0.20000000298023224,-17.680999755859375 C2.365999937057495,-20.93000030517578 5.6539998054504395,-24.216999053955078 8.902999877929688,-26.382999420166016 C12.383999824523926,-29.864999771118164 22.033000946044922,-37.3489990234375 26.906999588012695,-37.88999938964844 C28.9950008392334,-38.895999908447266 34.992000579833984,-44.19900131225586 38.472999572753906,-42.26599884033203 C40.09700012207031,-40.64099884033203 38.08599853515625,-41.87900161743164 38.24100112915039,-40.95000076293945 C38.39500045776367,-40.02199935913086 40.948001861572266,-38.242000579833984 40.56100082397461,-37.85499954223633 C39.4010009765625,-36.69499969482422 32.862998962402344,-31.93400001525879 32.24399948120117,-30.23200035095215 C32.39899826049805,-29.304000854492188 32.63100051879883,-30.618000030517578 33.32699966430664,-29.148000717163086 C34.02299880981445,-27.67799949645996 30.950000762939453,-26.773000717163086 31.104999542236328,-25.8439998626709 C30.871999740600586,-24.52899932861328 31.954999923706055,-23.445999145507812 30.253999710083008,-22.82699966430664 C31.878000259399414,-21.202999114990234 30.408000946044922,-21.898000717163086 30.950000762939453,-21.35700035095215 C27.62299919128418,-16.94700050354004 17.06399917602539,-8.553000450134277 14.510000228881836,-4.916999816894531 C14.123000144958496,-4.53000020980835 9.723999977111816,-2.8380000591278076 9.336999893188477,-2.4519999027252197 C8.949999809265137,-2.065000057220459 9.258999824523926,-0.2070000022649765 8.871999740600586,0.18000000715255737 C8.098999977111816,0.953000009059906 6.396999835968018,1.5720000267028809 5.236999988555908,2.7320001125335693"></path></g></g></g><g mask="url(#__lottie_element_26)" style="display: block;"><g transform="matrix(1,0,0,1,4.5,24.5)" opacity="1"><g class="single-line-container" opacity="1" transform="matrix(1,0,0,1,96.12100219726562,77.1709976196289)"><path class="single-line" fill="rgb(181,31,31)" fill-opacity="1" d=" M-34.91600036621094,-40.17100143432617 C-34.91600036621094,-40.17100143432617 -37.16299819946289,-38.52299880981445 -37.16299819946289,-38.52299880981445 C-37.16299819946289,-39.82699966430664 -38.38800048828125,-39.071998596191406 -39.680999755859375,-37.90599822998047 C-38.79600143432617,-36.2599983215332 -37.16299819946289,-34.888999938964844 -38.52299880981445,-31.801000595092773 C-38.52299880981445,-31.25200080871582 -37.979000091552734,-31.801000595092773 -37.775001525878906,-31.18199920654297 C-38.5,-27.878000259399414 -37.64400100708008,-24.42300033569336 -35.46099853515625,-21.851999282836914 C-33.14799880981445,-21.510000228881836 -32.53499984741211,-19.58799934387207 -30.969999313354492,-18.010000228881836 C-29.200000762939453,-18.695999145507812 -29.336999893188477,-16.981000900268555 -28.792999267578125,-16.226999282836914 C-28.24799919128418,-15.470999717712402 -27.09000015258789,-15.402999877929688 -26.40999984741211,-14.78600025177002 C-25.729999542236328,-14.168999671936035 -25.524999618530273,-12.86400032043457 -24.027999877929688,-13.206000328063965 C-24.027999877929688,-12.45199966430664 -24.027999877929688,-12.795999526977539 -23.687999725341797,-12.039999961853027 C-23.263999938964844,-12.157999992370605 -22.81800079345703,-12.157999992370605 -22.395000457763672,-12.039999961853027 C-20.01300048828125,-10.324999809265137 -18.243000030517578,-7.443999767303467 -15.58899974822998,-6.689000129699707 C-15.58899974822998,-6.689000129699707 -15.58899974822998,-5.5229997634887695 -15.58899974822998,-5.5229997634887695 C-15.58899974822998,-5.111000061035156 -13.751999855041504,-4.150000095367432 -13.003999710083008,-3.6710000038146973 C-12.255000114440918,-3.190999984741211 -12.526000022888184,-2.571000099182129 -12.050000190734863,-2.0920000076293945 C-11.574000358581543,-1.6109999418258667 -10.348999977111816,-1.2009999752044678 -9.668999671936035,-0.6520000100135803 C-7.151000022888184,1.6119999885559082 -4.359000205993652,4.359000205993652 -2.864000082015991,6.210000038146973 C-1.3660000562667847,8.062000274658203 0.8799999952316284,9.571000099182129 2.513000011444092,11.423999786376953 C4.146999835968018,13.277000427246094 5.372000217437744,13.758000373840332 6.5279998779296875,15.130000114440918 C7.685999870300293,16.503000259399414 7.48199987411499,16.913000106811523 8.093000411987305,17.66699981689453 C8.706999778747559,18.42300033569336 11.088000297546387,19.041000366210938 11.359999656677246,21.23699951171875 C11.826000213623047,21.332000732421875 12.281999588012695,21.468000411987305 12.722999572753906,21.645999908447266 C16.58300018310547,25.35300064086914 20.11199951171875,29.395000457763672 23.268999099731445,33.722999572753906 C23.440000534057617,33.9630012512207 23.593000411987305,33.722999572753906 23.719999313354492,33.481998443603516 C23.847000122070312,33.242000579833984 23.951000213623047,33.00199890136719 24.018999099731445,33.24300003051758 C25.447999954223633,34.06700134277344 25.719999313354492,35.64500045776367 26.80900001525879,36.604000091552734 C27.424999237060547,37.14899826049805 27.452999114990234,36.94499969482422 27.39699935913086,36.73899841308594 C27.381000518798828,36.67900085449219 27.357999801635742,36.61800003051758 27.34000015258789,36.57699966430664 C27.301000595092773,36.499000549316406 27.315000534057617,36.516998291015625 27.34000015258789,36.57699966430664 C27.3439998626709,36.58599853515625 27.349000930786133,36.59400177001953 27.354000091552734,36.604000091552734 C27.558000564575195,37.016998291015625 28.170000076293945,37.70199966430664 29.05500030517578,37.632999420166016 C29.93899917602539,37.564998626708984 30.280000686645508,36.5359992980957 30.552000045776367,37.08599853515625 C30.823999404907227,37.632999420166016 31.368999481201172,37.08599853515625 31.506000518798828,38.11399841308594 C33.13800048828125,37.08599853515625 33.275001525878906,38.112998962402344 34.090999603271484,38.72999954223633 C34.90800094604492,39.34700012207031 35.722999572753906,38.73099899291992 36.3380012512207,39.417999267578125 C36.95000076293945,40.104000091552734 37.22200012207031,41.20100021362305 38.17399978637695,41.27000045776367 C39.12799835205078,41.3380012512207 38.582000732421875,40.58399963378906 39.263999938964844,40.104000091552734 C39.680999755859375,38.632999420166016 39.50899887084961,37.055999755859375 38.7859992980957,35.7130012512207 C38.106998443603516,35.0260009765625 38.7859992980957,33.17399978637695 37.22200012207031,32.487998962402344 C35.65599822998047,31.801000595092773 38.03900146484375,32.487998962402344 37.22200012207031,31.801000595092773 C36.99700164794922,31.613000869750977 36.86000061035156,31.527999877929688 36.775001525878906,31.503999710083008 C36.72999954223633,31.577999114990234 36.67900085449219,31.650999069213867 36.61600112915039,31.722000122070312 C36.60599899291992,31.76799964904785 36.58599853515625,31.801000595092773 36.54199981689453,31.801000595092773 C36.56800079345703,31.774999618530273 36.59199905395508,31.74799919128418 36.61600112915039,31.722000122070312 C36.63800048828125,31.6200008392334 36.619998931884766,31.461000442504883 36.775001525878906,31.503999710083008 C37.09600067138672,30.968000411987305 36.946998596191406,30.386999130249023 36.62699890136719,29.957000732421875 C36.387001037597656,29.8700008392334 36.06800079345703,29.746000289916992 35.926998138427734,29.673999786376953 C35.926998138427734,29.673999786376953 36.08599853515625,29.461999893188477 36.08599853515625,29.461999893188477 C35.8390007019043,29.316999435424805 35.582000732421875,29.257999420166016 35.38399887084961,29.332000732421875 C34.63600158691406,29.606000900268555 35.38399887084961,29.673999786376953 35.38399887084961,29.950000762939453 C35.38399887084961,30.222999572753906 33.887001037597656,28.09600067138672 33.95500183105469,26.999000549316406 C34.63600158691406,26.999000549316406 33.95500183105469,28.30299949645996 34.97600173950195,28.166000366210938 C34.70100021362305,26.951000213623047 34.14099884033203,25.82200050354004 33.34199905395508,24.871999740600586 C32.59400177001953,25.558000564575195 33.95500183105469,25.969999313354492 33.34199905395508,26.999000549316406 C32.73099899291992,26.243000030517578 32.18600082397461,24.735000610351562 31.777000427246094,24.392000198364258 C31.368999481201172,24.048999786376953 32.93299865722656,23.843000411987305 32.525001525878906,23.29400062561035 C32.18600082397461,20.618000030517578 30.483999252319336,20.000999450683594 29.667999267578125,18.148000717163086 C29.667999267578125,17.73699951171875 29.667999267578125,16.364999771118164 29.12299919128418,16.09000015258789 C28.57900047302246,15.8149995803833 27.558000564575195,14.10099983215332 26.604000091552734,13.210000038146973 C26.16200065612793,12.630000114440918 25.881000518798828,11.942000389099121 25.788999557495117,11.217000007629395 C25.788999557495117,10.670000076293945 24.834999084472656,10.670000076293945 24.4950008392334,10.258000373840332 C23.850000381469727,9.355999946594238 23.26099967956543,8.416999816894531 22.72599983215332,7.445000171661377 C16.86199951171875,0.593999981880188 10.59000015258789,-5.889999866485596 3.943000078201294,-11.970999717712402 C3.943000078201294,-11.970999717712402 2.444999933242798,-11.970999717712402 2.444999933242798,-11.970999717712402 C2.8540000915527344,-14.303999900817871 0.5379999876022339,-14.305000305175781 -0.9570000171661377,-15.881999969482422 C-3.9509999752044678,-18.14699935913086 -6.264999866485596,-21.163999557495117 -8.920000076293945,-23.56599998474121 C-8.920000076293945,-23.56599998474121 -10.213000297546387,-23.56599998474121 -10.213000297546387,-23.56599998474121 C-11.642000198364258,-24.45800018310547 -12.390999794006348,-26.17300033569336 -14.295000076293945,-26.104999542236328 C-15.713000297546387,-28.45400047302246 -17.944000244140625,-30.18899917602539 -20.55699920654297,-30.976999282836914 C-20.149999618530273,-32.417999267578125 -21.44099998474121,-32.28099822998047 -21.986000061035156,-32.762001037597656 C-22.5310001373291,-33.242000579833984 -22.66699981689453,-33.78900146484375 -23.211999893188477,-34.132999420166016 C-25.628999710083008,-36.18299865722656 -28.152000427246094,-38.106998443603516 -30.766000747680664,-39.895999908447266 C-30.766000747680664,-40.58300018310547 -30.766000747680664,-41.198001861572266 -31.242000579833984,-41.33700180053711 C-32.80699920654297,-40.23899841308594 -34.236000061035156,-39.20899963378906 -34.91600036621094,-40.17100143432617z"></path></g></g></g></g></svg>