<svg xmlns="http://www.w3.org/2000/svg" viewBox="0 0 200 200" width="200" height="200" preserveAspectRatio="xMidYMid meet" style="width: 100%; height: 100%; transform: translate3d(0px, 0px, 0px);"><defs><clipPath id="__lottie_element_9"><rect width="200" height="200" x="0" y="0"></rect></clipPath><mask id="__lottie_element_13" mask-type="alpha"><g transform="matrix(1,0,0,1,100,100)" opacity="1" style="display: block;"><g opacity="1" transform="matrix(1,0,0,1,0,0)"><path stroke-linecap="round" stroke-linejoin="miter" fill-opacity="0" stroke-miterlimit="4" stroke="rgb(242,73,47)" stroke-opacity="1" stroke-width="18" d=" M-75,-25.5 C-75,-25.5 53,-28 53,-28"></path></g><g opacity="1" transform="matrix(1,0,0,1,0,0)"><path stroke-linecap="round" stroke-linejoin="miter" fill-opacity="0" stroke-miterlimit="4" stroke="rgb(242,73,47)" stroke-opacity="1" stroke-width="18" d=" M-75,2.5 C-75,2.5 50.5,-1.5 50.5,-1.5"></path></g><g opacity="1" transform="matrix(1,0,0,1,0,0)"><path stroke-linecap="round" stroke-linejoin="miter" fill-opacity="0" stroke-miterlimit="4" stroke="rgb(242,73,47)" stroke-opacity="1" stroke-width="18" d=" M-77,28 C-77,28 52.5,24.5 52.5,24.5"></path></g></g></mask></defs><g clip-path="url(#__lottie_element_9)"><g mask="url(#__lottie_element_13)" style="display: block;"><g class="lines" transform="matrix(1,0,0,1,4.5,24.5)" opacity="1"><g class="line-container" opacity="1" transform="matrix(1,0,0,1,96.45500183105469,47.47600173950195)"><path class="line" fill="rgb(255,255,255)" fill-opacity="1" d=" M-37.91699981689453,5.333000183105469 C-37.91699981689453,4.785999774932861 -36.821998596191406,5.334000110626221 -36.821998596191406,4.239999771118164 C-36.821998596191406,3.1459999084472656 -37.369998931884766,3.693000078201294 -37.91699981689453,3.693000078201294 C-37.91699981689453,3.693000078201294 -46.66899871826172,3.693000078201294 -46.66899871826172,3.693000078201294 C-50.49800109863281,4.7870001792907715 -53.779998779296875,4.785999774932861 -57.60900115966797,4.785999774932861 C-58.15700149536133,4.785999774932861 -58.15700149536133,3.693000078201294 -58.70399856567383,3.693000078201294 C-59.25,3.693000078201294 -59.79899978637695,4.239999771118164 -60.34600067138672,3.693000078201294 C-60.34600067138672,0.9580000042915344 -57.60900115966797,2.0510001182556152 -57.60900115966797,-0.13699999451637268 C-55.96799850463867,-0.6840000152587891 -53.233001708984375,-0.13699999451637268 -52.68600082397461,-2.325000047683716 C-46.12200164794922,-2.872999906539917 -35.18199920654297,-7.249000072479248 -28.618000030517578,-5.060999870300293 C-24.788000106811523,-6.15500020980835 -13.574000358581543,-6.427999973297119 -9.197999954223633,-5.88100004196167 C-7.008999824523926,-5.88100004196167 -4.821000099182129,-6.427999973297119 -3.180000066757202,-5.88100004196167 C-2.632999897003174,-5.88100004196167 -2.631999969482422,-5.334000110626221 -2.0850000381469727,-5.334000110626221 C0.6499999761581421,-5.334000110626221 3.385999917984009,-5.334000110626221 6.119999885559082,-5.88100004196167 C7.76200008392334,-5.88100004196167 12.069000244140625,-5.60699987411499 14.258000373840332,-5.60699987411499 C16.445999145507812,-5.60699987411499 20.00200080871582,-6.15500020980835 23.284000396728516,-6.15500020980835 C24.924999237060547,-6.15500020980835 31.48900032043457,-5.60699987411499 33.13100051879883,-5.60699987411499 C33.13100051879883,-6.15500020980835 33.678001403808594,-6.702000141143799 33.678001403808594,-6.702000141143799 C33.678001403808594,-6.702000141143799 34.224998474121094,-6.15500020980835 34.77199935913086,-6.15500020980835 C35.31800079345703,-6.15500020980835 35.31800079345703,-6.702000141143799 35.86600112915039,-6.702000141143799 C35.86600112915039,-6.702000141143799 40.242000579833984,-6.702000141143799 40.242000579833984,-6.702000141143799 C40.242000579833984,-6.702000141143799 43.604000091552734,-6.702000141143799 43.604000091552734,-6.702000141143799 C44.150001525878906,-6.702000141143799 45.24399948120117,-6.702000141143799 45.79100036621094,-6.15500020980835 C46.3390007019043,-6.15500020980835 53.23400115966797,-4.709000110626221 53.78099822998047,-4.163000106811523 C54.327999114990234,-3.615000009536743 54.327999114990234,-4.163000106811523 54.875,-4.163000106811523 C56.516998291015625,-3.615000009536743 57.0629997253418,-1.975000023841858 58.70399856567383,-1.975000023841858 C59.25199890136719,-1.4279999732971191 59.79899978637695,-0.8809999823570251 60.34600067138672,-0.33399999141693115 C60.34600067138672,0.7599999904632568 58.70500183105469,1.8550000190734863 58.15700149536133,1.8550000190734863 C58.15700149536133,2.9489998817443848 60.34600067138672,2.947999954223633 59.79899978637695,3.494999885559082 C58.15700149536133,4.589000225067139 57.0629997253418,3.496000051498413 55.970001220703125,4.043000221252441 C54.875,4.590000152587891 54.327999114990234,6.230999946594238 53.78099822998047,5.684000015258789 C53.23400115966797,6.230999946594238 46.3390007019043,5.88100004196167 45.79100036621094,6.427999973297119 C44.150001525878906,5.88100004196167 41.33599853515625,6.974999904632568 39.14799880981445,6.974999904632568 C38.60100173950195,6.974999904632568 37.50699996948242,6.427999973297119 36.959999084472656,6.427999973297119 C36.41299819946289,6.427999973297119 36.41299819946289,6.974999904632568 36.41299819946289,6.974999904632568 C36.41299819946289,6.974999904632568 33.678001403808594,6.974999904632568 33.678001403808594,6.974999904632568 C32.58399963378906,6.974999904632568 24.924999237060547,6.427999973297119 22.736000061035156,6.427999973297119 C19.45400047302246,6.974999904632568 12.137999534606934,6.15500020980835 8.309000015258789,6.15500020980835 C6.668000221252441,7.249000072479248 4.479000091552734,6.15500020980835 2.2899999618530273,6.702000141143799 C0.10300000011920929,7.249000072479248 -2.0850000381469727,6.15500020980835 -4.2729997634887695,6.15500020980835 C-13.026000022888184,5.60699987411499 -28.06999969482422,5.880000114440918 -37.91699981689453,5.333000183105469z"></path></g><g class="line-container" opacity="1" transform="matrix(1,0,0,1,95.63400268554688,74.18199920654297)"><path class="line" fill="rgb(255,255,255)" fill-opacity="1" d=" M-12.206000328063965,7.111000061035156 C-12.206000328063965,7.111000061035156 -13.847000122070312,8.206000328063965 -14.394000053405762,7.658999919891357 C-15.48799991607666,7.111999988555908 -23.420000076293945,6.839000225067139 -24.514999389648438,6.291999816894531 C-26.702999114990234,5.744999885559082 -29.437999725341797,5.744999885559082 -32.17300033569336,6.291999816894531 C-33.81399917602539,7.385000228881836 -34.90800094604492,6.839000225067139 -37.09600067138672,6.839000225067139 C-39.28499984741211,6.291999816894531 -46.39500045776367,6.839000225067139 -48.58300018310547,7.385000228881836 C-49.676998138427734,7.932000160217285 -52.41400146484375,5.197999954223633 -53.50699996948242,4.650000095367432 C-53.50699996948242,4.650000095367432 -56.242000579833984,5.744999885559082 -56.242000579833984,5.744999885559082 C-56.242000579833984,5.744999885559082 -57.33700180053711,3.555000066757202 -57.33700180053711,3.555000066757202 C-57.33700180053711,3.555000066757202 -57.33700180053711,2.4630000591278076 -57.33700180053711,2.4630000591278076 C-57.33700180053711,2.4630000591278076 -56.78799819946289,1.3680000305175781 -56.78799819946289,1.3680000305175781 C-56.78799819946289,1.3680000305175781 -52.959999084472656,-1.9149999618530273 -52.959999084472656,-1.9149999618530273 C-52.959999084472656,-1.9149999618530273 -48.58300018310547,-3.007999897003174 -48.58300018310547,-3.007999897003174 C-48.58300018310547,-3.007999897003174 -45.8489990234375,-2.4619998931884766 -44.755001068115234,-4.103000164031982 C-44.20800018310547,-4.650000095367432 -38.73699951171875,-4.103000164031982 -37.09600067138672,-4.103000164031982 C-35.45500183105469,-4.103000164031982 -36.000999450683594,-5.743000030517578 -35.45399856567383,-5.743000030517578 C-34.90700149536133,-5.743000030517578 -34.361000061035156,-5.197000026702881 -33.81399917602539,-5.197000026702881 C-33.266998291015625,-5.197000026702881 -33.26599884033203,-6.8379998207092285 -33.26599884033203,-6.8379998207092285 C-33.26599884033203,-6.8379998207092285 -32.17300033569336,-6.290999889373779 -31.07900047302246,-6.290999889373779 C-29.985000610351562,-6.290999889373779 -29.985000610351562,-7.385000228881836 -28.891000747680664,-7.385000228881836 C-27.797000885009766,-7.385000228881836 -26.702999114990234,-6.8379998207092285 -25.06100082397461,-6.290999889373779 C-22.326000213623047,-6.290999889373779 -12.206000328063965,-6.564000129699707 -9.470999717712402,-6.564000129699707 C-4.546999931335449,-6.564000129699707 0.37700000405311584,-7.111999988555908 4.752999782562256,-8.206000328063965 C6.394000053405762,-8.206000328063965 11.24899959564209,-7.385000228881836 12.888999938964844,-7.385000228881836 C16.718000411987305,-7.931000232696533 21.3700008392334,-7.931000232696533 25.198999404907227,-7.385000228881836 C30.121999740600586,-7.385000228881836 42.23500061035156,-6.290999889373779 46.06399917602539,-4.103000164031982 C48.25199890136719,-3.555999994277954 56.24300003051758,-3.2060000896453857 57.33700180053711,-0.47099998593330383 C57.33700180053711,1.1699999570846558 56.790000915527344,-0.4699999988079071 56.242000579833984,0.07699999958276749 C55.69499969482422,0.6240000128746033 56.242000579833984,2.812000036239624 55.69499969482422,2.812000036239624 C54.05400085449219,2.812000036239624 46.06399917602539,1.9149999618530273 44.42300033569336,2.4630000591278076 C43.87699890136719,3.009000062942505 44.970001220703125,2.4619998931884766 44.42300033569336,3.555000066757202 C43.87699890136719,4.64900016784668 41.0629997253418,3.555999994277954 40.51599884033203,4.103000164031982 C39.42100143432617,4.650000095367432 39.42100143432617,5.744999885559082 37.78099822998047,5.197999954223633 C37.78099822998047,6.839000225067139 37.233001708984375,5.744999885559082 37.233001708984375,6.291999816894531 C31.761999130249023,6.839000225067139 18.360000610351562,5.744999885559082 13.984000205993652,6.291999816894531 C13.435999870300293,6.291999816894531 9.128000259399414,4.923999786376953 8.581999778747559,4.923999786376953 C8.03499984741211,4.923999786376953 6.940999984741211,6.01800012588501 6.394000053405762,6.01800012588501 C5.300000190734863,6.01800012588501 3.6589999198913574,5.4710001945495605 2.0179998874664307,5.4710001945495605"></path></g><g class="line-container" opacity="1" transform="matrix(1,0,0,1,95.90799713134766,101.29399871826172)"><path class="line" fill="rgb(255,255,255)" fill-opacity="1" d=" M7.215000152587891,-5.919000148773193 C7.76200008392334,-5.919000148773193 12.614999771118164,-5.645999908447266 12.614999771118164,-5.645999908447266 C13.710000038146973,-5.098999977111816 14.805000305175781,-4.551000118255615 16.44499969482422,-4.551000118255615 C19.180999755859375,-4.002999782562256 22.735000610351562,-4.002999782562256 25.47100067138672,-4.551000118255615 C27.659000396728516,-5.0980000495910645 34.77199935913086,-5.645999908447266 36.959999084472656,-5.645999908447266 C39.14799880981445,-5.098999977111816 43.60300064086914,-5.0980000495910645 45.790000915527344,-6.190999984741211 C46.8849983215332,-6.73799991607666 54.875,-6.936999797821045 55.422000885009766,-6.936999797821045 C56.516998291015625,-6.936999797821045 57.611000061035156,-4.747000217437744 58.15700149536133,-6.388999938964844 C59.25199890136719,-4.747000217437744 59.25199890136719,-4.199999809265137 60.34600067138672,-4.747000217437744 C60.34600067138672,-2.01200008392334 59.25199890136719,-2.561000108718872 58.70399856567383,-0.9190000295639038 C58.70399856567383,0.17499999701976776 58.15700149536133,1.2699999809265137 57.611000061035156,2.364000082015991 C55.422000885009766,2.9110000133514404 46.8849983215332,2.561000108718872 45.24300003051758,3.6549999713897705 C44.150001525878906,4.202000141143799 41.88199996948242,4.202000141143799 41.334999084472656,4.202000141143799 C40.78799819946289,4.202000141143799 40.242000579833984,4.749000072479248 40.242000579833984,4.749000072479248 C38.60100173950195,4.749000072479248 38.05400085449219,3.6549999713897705 36.41299819946289,4.202000141143799 C34.77199935913086,4.749000072479248 34.77199935913086,4.749000072479248 34.224998474121094,5.296000003814697 C33.13100051879883,5.843999862670898 33.13100051879883,4.749000072479248 32.58300018310547,5.296000003814697 C32.0359992980957,5.843999862670898 26.018999099731445,5.843999862670898 26.018999099731445,5.843999862670898 C26.018999099731445,5.843999862670898 24.924999237060547,5.296000003814697 24.378000259399414,5.843999862670898 C23.83099937438965,6.390999794006348 22.735000610351562,6.936999797821045 22.18899917602539,6.936999797821045 C20.54800033569336,6.936999797821045 18.634000778198242,6.390999794006348 16.993000030517578,5.843999862670898 C14.258000373840332,5.843999862670898 3.384000062942505,5.570000171661377 0.10199999809265137,5.570000171661377 C-4.821000099182129,5.570000171661377 -5.914999961853027,5.570000171661377 -10.83899974822998,6.664000034332275 C-12.479999542236328,6.664000034332275 -14.121000289916992,6.117000102996826 -15.76200008392334,6.664000034332275 C-19.590999603271484,6.664000034332275 -30.805999755859375,6.936999797821045 -34.6349983215332,6.936999797821045 C-40.10499954223633,6.936999797821045 -50.499000549316406,6.390999794006348 -55.422000885009766,4.749000072479248 C-57.611000061035156,3.6549999713897705 -59.25199890136719,4.202000141143799 -60.34600067138672,2.0139999389648438 C-60.34600067138672,0.9200000166893005 -59.79899978637695,2.0139999389648438 -59.25199890136719,1.4670000076293945 C-58.70399856567383,0.9200000166893005 -59.79899978637695,-0.7210000157356262 -58.70399856567383,-0.7210000157356262 C-57.0629997253418,-0.7210000157356262 -55.422000885009766,-0.722000002861023 -53.78099822998047,-1.2699999809265137 C-53.23400115966797,-1.815999984741211 -54.327999114990234,-1.2699999809265137 -53.78099822998047,-2.36299991607666 C-53.23400115966797,-3.4570000171661377 -51.59299850463867,-2.36299991607666 -50.499000549316406,-2.9100000858306885 C-49.404998779296875,-3.4570000171661377 -47.21699905395508,-4.004000186920166 -45.02899932861328,-4.004000186920166 C-45.02899932861328,-5.098999977111816 -45.57500076293945,-4.551000118255615 -46.12200164794922,-4.551000118255615 C-40.104000091552734,-5.0980000495910645 -30.259000778198242,-4.551000118255615 -24.788000106811523,-4.551000118255615 C-24.240999221801758,-4.551000118255615 -15.76200008392334,-4.824999809265137 -15.21500015258789,-4.824999809265137 C-14.668000221252441,-4.824999809265137 -13.574000358581543,-5.919000148773193 -13.027000427246094,-5.919000148773193 C-11.38599967956543,-5.919000148773193 -10.291999816894531,-5.372000217437744 -8.102999687194824,-5.372000217437744 C-5.36899995803833,-5.372000217437744 -2.0859999656677246,-6.465000152587891 0.6499999761581421,-6.465000152587891 C3.384000062942505,-5.918000221252441 5.572999954223633,-5.919000148773193 7.215000152587891,-5.919000148773193 C6.666999816894531,-5.919000148773193 7.215000152587891,-5.919000148773193 7.215000152587891,-5.919000148773193z"></path></g></g></g></g></svg>