<svg viewBox="0 0 20 20" xmlns="http://www.w3.org/2000/svg"><g fill="#fff" fill-rule="nonzero"><path d="M14.401 0H5.489A5.495 5.495 0 000 5.489V14.4A5.495 5.495 0 005.49 19.89h8.912a5.495 5.495 0 005.489-5.49V5.49A5.495 5.495 0 0014.4 0zm3.724 14.401a3.728 3.728 0 01-3.724 3.724H5.49a3.728 3.728 0 01-3.724-3.724V5.489A3.728 3.728 0 015.49 1.765h8.912a3.729 3.729 0 013.724 3.724v8.912z"></path><path d="M9.945 4.82A5.13 5.13 0 004.82 9.945a5.13 5.13 0 005.125 5.125 5.13 5.13 0 005.125-5.125A5.13 5.13 0 009.945 4.82zm0 8.485a3.364 3.364 0 01-3.36-3.36 3.364 3.364 0 013.36-3.36 3.364 3.364 0 013.36 3.36 3.364 3.364 0 01-3.36 3.36zM15.285 3.324a1.3 1.3 0 00-1.294 1.294c0 .34.139.674.38.915.24.24.574.379.914.379.341 0 .674-.139.915-.379.241-.241.38-.575.38-.915a1.3 1.3 0 00-.38-.916 1.3 1.3 0 00-.915-.378z"></path></g></svg>