<svg xmlns="http://www.w3.org/2000/svg" viewBox="0 0 103.18 155.51"><g id="Layer_2" data-name="Layer 2"><g id="Calque_1" data-name="Calque 1"><path class="cls-1" d="M51.59 150.88a46.59 46.59 0 01-22.46-5.73c-1.27-.8-1.36-2.07 1-2 22.47 2.21 52.49-.83 57.47-24.56C89.74 108.49 83 99.85 74.75 95c-7.19-4.24-16-4.2-23-8.67s-5.26-12.26-.11-16.61a4.33 4.33 0 014.32 0 8.69 8.69 0 009.3-.12l8-5.19a4.5 4.5 0 016.29 1.15L96 87.91a11.58 11.58 0 012.56 8.26v7.75a47 47 0 01-47 47m-7.94-63c4.92 5 13.18 5.17 19.42 7.44a29.68 29.68 0 0114.49 11c5.63 8.41 3 18.63-3.83 25.38-12.7 12.6-35 9.91-50.86 6.47a15.35 15.35 0 01-5.63-2.43h37.4a1.16 1.16 0 100-2.32H15.05c-.77-1-1.5-1.92-2.19-2.93h44.69a1.16 1.16 0 100-2.31H11.36c-.58-1-1.11-1.94-1.62-2.94h48.14a1.16 1.16 0 100-2.31H8.64c-.43-1-.83-1.94-1.19-2.94h48a1.16 1.16 0 100-2.31H6.67c-.29-1-.55-1.94-.78-2.93H50a1.16 1.16 0 100-2.31H5.41q-.27-1.45-.45-2.94H43a1.16 1.16 0 100-2.31H4.75q-.11-1.45-.12-2.94h32.12a1.16 1.16 0 100-2.31H4.63V99h27.75a1.16 1.16 0 100-2.32H4.63v-2.97H30a1.16 1.16 0 000-2.31H4.63V91a2.77 2.77 0 01.56-1.43l1-1.12h22.9a1.16 1.16 0 000-2.31H8.37l2.73-2.93h18.48a1.16 1.16 0 100-2.31H13.24L16 78h15a1.16 1.16 0 100-2.31H18.11l2.74-3h12.66a1.16 1.16 0 100-2.31H23l2.72-2.93H37a1.16 1.16 0 000-2.32h-9.15l2.72-2.93h10.75a1.16 1.16 0 100-2.31h-8.6l2.74-3a4 4 0 016-.24l6.63 6.08a4.5 4.5 0 00.38.41c2.25 2.16 1.18 3.64.06 4.39-7.36 4.48-12.41 12.66-4.91 20.25m7.97-83.15a47 47 0 0147 47v26.1c-.09 1.81-1.78 3.19-3.49 1.16l-11.71-16c-4.09-5.58-10-4-12.51-2.32l-8.06 5.2a4.28 4.28 0 01-5.11-.44l-13.06-12c-4.78-4.4-10.13-2.11-12.55.5L8.37 79.35c-1.86 1.59-3.54.07-3.74-1.69V51.59a47 47 0 0147-47m0-4.63A51.64 51.64 0 000 51.59v52.33a51.59 51.59 0 00103.18 0V51.59A51.64 51.64 0 0051.59 0" fill="#fff"></path><path class="cls-1" d="M65.65 76.81a1.15 1.15 0 00-1.16-1.15h-9.4a1.16 1.16 0 000 2.31h9.4a1.16 1.16 0 001.16-1.16M78.09 86.15h-8.9a1.16 1.16 0 000 2.31h8.9a1.16 1.16 0 000-2.31M75.58 82.06a1.15 1.15 0 00-1.16-1.15H58a1.16 1.16 0 000 2.31h16.42a1.16 1.16 0 001.16-1.16M96.62 75.74l-.63-.1a.58.58 0 10-.18 1.14l.62.1h.1a.58.58 0 00.09-1.15M82.44 56.35a.58.58 0 00-.33.75.58.58 0 00.54.37.52.52 0 00.21 0l12-4.65a.57.57 0 00.33-.75.59.59 0 00-.75-.33zM63.51 60.16a.56.56 0 00.46.23.66.66 0 00.35-.11L94.38 38a.58.58 0 00.12-.81.59.59 0 00-.81-.12L63.63 59.35a.58.58 0 00-.12.81M67.21 49.17a.57.57 0 00.35.12.55.55 0 00.46-.22l16.8-21.34a.58.58 0 00-.1-.81.57.57 0 00-.81.1l-16.8 21.33a.59.59 0 00.1.82M66.14 54.87a.55.55 0 00.41.18.58.58 0 00.4-.17l20.61-20a.58.58 0 10-.81-.83l-20.6 20a.57.57 0 000 .82M95.55 70.81a.58.58 0 000-1.15l-3.29-.1a.55.55 0 00-.59.56.58.58 0 00.56.6l3.28.09zM56.82 60.18a.51.51 0 00.29.08.58.58 0 00.5-.28L82 18.67a.58.58 0 00-.21-.79.58.58 0 00-.79.2L56.61 59.39a.57.57 0 00.21.79M16.35 65.23l-6.23-.55a.58.58 0 10-.1 1.15l6.23.55h.05a.56.56 0 00.57-.53.57.57 0 00-.52-.62M23.42 57.76L11.24 53.2a.58.58 0 00-.41 1.09L23 58.84a.48.48 0 00.2 0 .58.58 0 00.21-1.12M11.6 70.21l-3.76.18a.58.58 0 00-.55.61.57.57 0 00.57.55l3.77-.18a.58.58 0 00-.06-1.16M91.23 47.11a.58.58 0 00-.79-.22L78 53.75a.58.58 0 00-.23.79.57.57 0 00.5.3.68.68 0 00.28-.07L91 47.9a.59.59 0 00.23-.79M93.84 58.74a.59.59 0 00-.7-.43l-7.8 1.89a.59.59 0 00-.43.7.58.58 0 00.56.44.34.34 0 00.14 0l7.8-1.88a.59.59 0 00.43-.7M10.83 46.37a.57.57 0 00-.78.23.59.59 0 00.24.79l15.5 8.32a.64.64 0 00.27.07.59.59 0 00.51-.31.58.58 0 00-.24-.78zM88.06 65.14a.58.58 0 00.58.52h.06l7.89-.82a.58.58 0 00.51-.64.56.56 0 00-.63-.51l-7.89.82a.58.58 0 00-.52.63M37.32 46.11a.58.58 0 00.5.28.6.6 0 00.29-.08.58.58 0 00.2-.8L23.07 20a.56.56 0 00-.79-.2.57.57 0 00-.2.79zM31 50a.58.58 0 00.82 0 .58.58 0 000-.82L15 33.11a.58.58 0 10-.8.84zM33.8 47.5a.55.55 0 00.45.22.58.58 0 00.45-.94L17.79 25.61a.58.58 0 10-.9.72zM24 49.58a.53.53 0 00.34.11.6.6 0 00.47-.23.59.59 0 00-.13-.81L10.15 38a.58.58 0 10-.68.93zM7.5 59.51l8.5 1.92h.13a.58.58 0 00.13-1.14l-8.51-1.91a.58.58 0 00-.69.44.57.57 0 00.44.69M7.13 77.67h.11l.76-.15a.57.57 0 00-.21-1.13l-.79.13a.58.58 0 00.1 1.15M63 42.09a.59.59 0 00.23 0 .57.57 0 00.53-.35l10.09-23.81a.58.58 0 00-1.07-.45L62.69 41.33a.59.59 0 00.31.76M51.65 55.21a.58.58 0 00.58-.58V10.22a.58.58 0 10-1.16 0v44.41a.58.58 0 00.58.58M39.06 41a.56.56 0 00.53.35.44.44 0 00.22 0 .57.57 0 00.31-.75L31 19.11a.57.57 0 00-.76-.3.58.58 0 00-.3.76zM55 44.31a.57.57 0 00.57-.5l4.8-35.53a.59.59 0 00-.49-.65.57.57 0 00-.65.5l-4.77 35.52a.58.58 0 00.49.66M54.59 58.18a.4.4 0 00.15 0 .59.59 0 00.56-.43l12-43.91a.58.58 0 00-1.12-.31l-12 43.91a.58.58 0 00.41.71M46.3 50.17h.16a.58.58 0 00.4-.72L36.57 12.18a.58.58 0 10-1.11.31l10.29 37.25a.57.57 0 00.55.43M47.27 37.19h.07a.58.58 0 00.5-.65L44.12 9.1a.56.56 0 00-.65-.49.58.58 0 00-.5.65l3.73 27.43a.57.57 0 00.57.5" fill="#fff"></path></g></g></svg>