<svg xmlns="http://www.w3.org/2000/svg" viewBox="0 0 254.98 53.16"><g id="Layer_8" data-name="Layer 8"><g id="Calque_9" data-name="Calque 9"><path class="cls-1" d="M230.19 16.79V17a.65.65 0 010 .24.37.37 0 00.07.19v2.1c0 .08.08.16.08.23v.47c0 .08.08.16.08.23v2.1a.36.36 0 000 .2V23.69a.61.61 0 000 .23v1.4a.45.45 0 000 .23v.47c0 .08.08.16.08.24V27c0 .08.08.16.08.24v.39a.36.36 0 00.15.15.3.3 0 00.2 0h.81c.11 0 .12-.08.2-.08s.12-.08.15-.15 0-.16.12-.2.12-.08.19-.12a2 2 0 00.2-.11.26.26 0 00.19-.08 1.41 1.41 0 01.24 0h.46a.57.57 0 00.24.08h.23a.49.49 0 00.23 0 2.17 2.17 0 00.24.07c.07 0 .11 0 .19.08s.2 0 .27 0 .12.08.2.12a.49.49 0 01.23 0 .42.42 0 00.19 0 .51.51 0 00.24 0c.08 0 .15.11.23.11a.49.49 0 00.23 0c.08 0 .16 0 .24.08a.4.4 0 01.19 0 .45.45 0 01.23 0 .51.51 0 01.24 0h.23a.49.49 0 01.23.08h.43a.53.53 0 01.23.08H238.89a.51.51 0 01.24 0c.07 0 .15-.08.27-.08a.27.27 0 00.19 0 .45.45 0 01.23 0h.7a.65.65 0 00.24 0 .59.59 0 00.23 0H243.56a.49.49 0 00.23 0h.47a.58.58 0 00.23-.08h.23a.57.57 0 00.24-.08h.46l.23-.12h.47a.63.63 0 01.23 0h.24l.23-.12h.23a.51.51 0 01.24 0c.07 0 .11-.12.19-.12a.59.59 0 01.23 0l.24-.11h.23c.08 0 .16 0 .23-.08a1.73 1.73 0 00.2 0c.08 0 .15-.12.23-.12a.63.63 0 01.23 0c.08 0 .12-.12.2-.16s.12-.08.19-.12a2.17 2.17 0 01.24-.07.28.28 0 00.19-.08c.08 0 .16 0 .23-.08s.12-.12.2-.15.15 0 .23-.08a.87.87 0 01.2-.12.63.63 0 01.19-.15.87.87 0 01.2-.12c.07 0 .15 0 .23-.08s.08-.12.15-.19a.87.87 0 01.2-.12c.08 0 .15 0 .19-.12a.59.59 0 00.16-.15l.23-.12s.08-.15.16-.19a.78.78 0 01.19-.12s.08-.15.12-.19.11-.12.15-.2a.33.33 0 00.16-.15.38.38 0 00.19-.16s.08-.15.12-.19.12-.12.15-.2.08-.11.12-.19.12-.12.16-.2a.63.63 0 00.15-.19v-.19a.87.87 0 01.16-.2 2 2 0 00.07-.23.87.87 0 01.12-.2v-.23l.12-.23a.4.4 0 00.07-.2.49.49 0 00.08-.23c0-.08 0-.16.08-.23s0-.16 0-.24v-.23-.23a.55.55 0 00.07-.24v-.23-.23-.24-.46-.7-.24-.23-.23a.57.57 0 00-.08-.24v-.23-.23c0-.08-.08-.12-.08-.2a.49.49 0 01-.08-.23 2 2 0 00-.07-.23c0-.08-.08-.12-.12-.2a.58.58 0 00-.08-.23v-.23c0-.07-.11-.12-.15-.2a.78.78 0 01-.12-.19c0-.08-.08-.12-.12-.2s-.11-.11-.15-.19a.87.87 0 01-.12-.2 1.18 1.18 0 01-.11-.19.52.52 0 00-.2-.15.87.87 0 00-.15-.2.78.78 0 01-.12-.19.56.56 0 01-.19-.16l-.16-.15a.56.56 0 01-.19-.16c-.08 0-.16 0-.24-.08s-.08-.15-.15-.19a.87.87 0 00-.2-.12 1.86 1.86 0 00-.19-.11c-.08 0-.12-.12-.2-.16s-.11-.08-.19-.12-.16 0-.23 0-.12-.11-.2-.15-.15 0-.23-.08l-.2-.08c-.07 0-.15-.11-.23-.11a.3.3 0 00-.19-.08c-.08 0-.16 0-.24-.08a.49.49 0 00-.23-.08 1.06 1.06 0 00-.19-.11c-.08 0-.16-.08-.24-.08s-.1.33-.1.33-.16 0-.24-.08a.75.75 0 01-.23-.07h-.23a.68.68 0 00-.2-.08c-.07 0-.15 0-.23-.08h-.23a.57.57 0 00-.24-.08.58.58 0 00-.23 0 .53.53 0 00-.23-.08.45.45 0 01-.23 0h-.24a.47.47 0 00-.23 0 .57.57 0 01-.24-.08h-.23a.33.33 0 01-.19-.07.45.45 0 01-.23 0 .51.51 0 01-.24 0h-.47c-.08 0-.15-.12-.23-.12h-.46c-.08 0-.16-.08-.24-.08h-.23a.48.48 0 01-.23-.07h-.7a.57.57 0 01-.24-.08h-.54c-.07 0-.16 0-.24-.08a.49.49 0 01-.23 0h-.47a.36.36 0 00-.19-.08.58.58 0 00-.23-.08c-.08 0-.16 0-.24-.08a.49.49 0 01-.23 0 .62.62 0 01-.23-.07 1.73 1.73 0 01-.2 0 .63.63 0 00-.27 0 1 1 0 00-.19-.12 2 2 0 00-.2-.11l-.23-.12a.87.87 0 00-.2-.12.71.71 0 01-.15-.15c-.08 0-.12-.12-.16-.16s-.11-.16-.15-.19l-.12-.24v-.84-.19-.24-.23a.4.4 0 01.16-.2.77.77 0 01.15-.19s.12-.08.16-.16a.59.59 0 00.19-.15h.24l.15-.15c.08 0 .16 0 .23-.08l.2-.12h.46a.51.51 0 01.24 0c.08 0 .11-.11.19-.11h.24a.58.58 0 00.23-.08H242.27c.08 0 .16-.08.24-.08h1.66c.08 0 .15.08.23.08a.45.45 0 01.23 0h.7a.66.66 0 00.24 0 .45.45 0 00.23 0c.08 0 .15.08.23.08s.16 0 .24.08a.49.49 0 01.23 0H246.93c.04 0 .15.11.23.11h.23c.07 0 .16.08.24.12a.93.93 0 01.19.07.49.49 0 01.23.08.57.57 0 01.24.08c.08 0 .11.08.19.12s.12.07.2.11.19 0 .23 0 .12.12.19.16.16 0 .24.08a.79.79 0 00.19.11c.08.08.16.08.2.12l.23.12.19.11.16.16a.62.62 0 00.19.15c0 .08.12.12.16.16s.15.08.19.15a.7.7 0 01.2.16s.08.12.15.19.12.08.16.16a.68.68 0 01.11.19.7.7 0 01.16.2c0 .08.12.11.16.19s0 .12.07.2l.12.23a.37.37 0 00.15.19.68.68 0 00.28 0 .69.69 0 01.19-.07h.62a.87.87 0 00.2-.16.33.33 0 00.11-.27v-.23-.24c0-.08-.07-.15-.07-.23s.07-.15 0-.23v-.01-.46-.24-.23-.23a.57.57 0 00-.08-.24v-.46a.49.49 0 010-.23v-.47-.23-.24-.23a.49.49 0 00-.08-.23c0-.08.08-.16 0-.24s0-.15 0-.23v-.23a.51.51 0 010-.24v-.23c0-.08-.07-.16-.07-.23v-.47-.27-.23-.24-.23a.49.49 0 010-.23V2.1a.49.49 0 010-.23c0-.08 0-.16-.08-.24s.08-.15 0-.23 0-.16 0-.23V.93a.41.41 0 00-.07-.27.74.74 0 00-.28-.08h-1.27a.19.19 0 00-.15.08.21.21 0 00-.16.08.5.5 0 01-.19.15.35.35 0 01-.24.12c-.07 0-.15 0-.23.08h-.97a.45.45 0 01-.23 0 .51.51 0 01-.24 0h-.23c-.08 0-.12-.07-.2-.07h-.23c-.08 0-.15-.08-.23-.12h-.47c-.08 0-.15-.11-.23-.11a.49.49 0 00-.23 0h-.24a.53.53 0 01-.23-.08h-.47a.49.49 0 00-.23-.08.49.49 0 00-.23 0h-.24a.49.49 0 00-.23-.08h-.23a.51.51 0 00-.24 0h-.46a.51.51 0 01-.24 0H242.86c-.08 0-.15-.08-.23-.08H240.53c-.07 0-.15.08-.23.08h-.23a.66.66 0 00-.24 0h-.46c-.07 0-.16.08-.24.08h-.23a.53.53 0 01-.23.08c-.08 0-.16 0-.24.08s-.15 0-.23 0-.15.08-.23.08a2.17 2.17 0 01-.24.07.49.49 0 00-.23 0h-.43c-.04 0-.15 0-.23.08s-.16.08-.23.11-.12 0-.2 0l-.23.12h-.47c-.08 0-.11.11-.19.15s-.16 0-.23.08l-.2.08-.23.11s-.12 0-.2.08-.11.12-.19.16a.62.62 0 00-.19.12l-.24.11s-.15 0-.19.08-.12.12-.2.16-.11.07-.19.11a.42.42 0 01-.19.16.89.89 0 01-.2.11 1.79 1.79 0 00-.19.16.59.59 0 01-.16.15c0 .08-.12.08-.19.12s-.12.12-.16.2-.08.11-.15.19-.12.08-.16.16-.08.11-.16.19l-.15.16c0 .07-.12.11-.16.15s-.07.16-.11.23-.08.12-.12.2-.08.11-.12.19a.89.89 0 01-.11.2c0 .07-.12.11-.16.19s0 .16 0 .23l-.11.24a.78.78 0 00-.12.19.49.49 0 01-.08.23v.24a.3.3 0 00-.11.19v.47c0 .08 0 .15-.08.23a.45.45 0 010 .23v1.4c0 .08-.08.16-.08.24a.45.45 0 010 .23v.23a.51.51 0 000 .24v.39a.51.51 0 000 .24c0 .07.08.11.08.19v.23a.73.73 0 01.07.24c0 .08 0 .15.08.23s.08.12.12.2a.45.45 0 010 .23 1.86 1.86 0 00.11.19c0 .08.12.12.16.2s0 .15.08.23a1.18 1.18 0 00.11.19l.16.16.12.23a.44.44 0 00.15.16.56.56 0 00.16.19l.15.16.16.15c.07.08.07.16.15.2s.12.11.16.15l.23.12s.12.08.2.16a1.43 1.43 0 00.11.15c.08.08.2.08.24.12a.71.71 0 01.15.15c.08 0 .16 0 .23.08s.12.12.2.16l.19.11c.08 0 .16 0 .24.08s.11.08.19.12a.49.49 0 01.23.08 1.29 1.29 0 00.2.15.28.28 0 00.19.08c.08 0 .16 0 .23.08l.2.11h.23c.08 0 .16 0 .24.08a.45.45 0 00.23 0c.08 0 .12.08.19.08s.16.11.24.11a.36.36 0 00.19.08h.27a.34.34 0 00.2.12h.23c.08 0 .16.11.23.11H238.16c.08 0 .12 0 .19.08s.16 0 .24 0h.46a.51.51 0 00.24 0 .62.62 0 00.23.07c.08 0 .12.08.19.08h.28c.07 0 .11 0 .19.08h.47a.53.53 0 00.35.36c.08 0 .16 0 .23.07a.65.65 0 01.24 0 1.47 1.47 0 01.46.12h.24a.49.49 0 00.23.08h.23a.57.57 0 01.24.08 1.18 1.18 0 00.19 0h.27c.08 0 .12.11.2.11h.7c.08 0 .15.08.23.08h.23a.87.87 0 01.2.12.61.61 0 01.23 0 .49.49 0 01.23.08h.24c.08 0 .15 0 .23.08s.15 0 .23 0 .12.11.2.11.15 0 .23.08.12 0 .2.08.11.12.19.16.12.11.19.15.08.12.16.16a1.12 1.12 0 00.15.19s0 .12.08.2a.45.45 0 010 .23v.46a.57.57 0 01-.08.24.28.28 0 01-.08.19c0 .08-.11.12-.15.2s-.12.07-.2.15-.11.08-.19.16a.45.45 0 01-.15.11l-.24.12a.78.78 0 01-.19.12.33.33 0 01-.2.11c-.08 0-.15 0-.23.08s-.12.08-.19.12a.51.51 0 00-.24 0 .49.49 0 00-.23 0l-.19.11h-.24a.47.47 0 01-.23 0c-.08 0-.16 0-.23.08H244a.47.47 0 00-.23 0h-.23a2.17 2.17 0 01-.24.07h-2.8a.49.49 0 01-.23 0h-.47c-.08 0-.15 0-.23-.08s-.15 0-.23 0-.12 0-.2-.08h-.23a2 2 0 00-.23-.07.57.57 0 01-.24-.08.49.49 0 01-.23 0h-.23c-.08 0-.12-.08-.2-.08a.45.45 0 00-.23 0l-.23-.11-.2-.08c-.08 0-.15 0-.23-.08a.49.49 0 00-.23 0c-.08 0-.12-.11-.2-.15s-.15 0-.23-.08-.16 0-.23 0a.87.87 0 00-.2-.12l-.19-.11a.87.87 0 01-.2-.12l-.23-.12A1.18 1.18 0 01235 20c-.08 0-.12-.12-.16-.16s-.16-.08-.23-.12l-.16-.15a.78.78 0 01-.19-.12c-.08 0-.12-.11-.2-.15s-.15-.08-.19-.12a.52.52 0 00-.2-.15.65.65 0 00-.15-.2.87.87 0 00-.2-.12l-.11-.23a.87.87 0 00-.2-.12c0-.07-.11-.11-.15-.19s0-.16-.12-.19-.08-.12-.12-.2-.11-.12-.15-.19a.87.87 0 01-.12-.2s-.11-.07-.15-.15-.08-.16-.12-.2l-.12-.23c0-.08-.07-.12-.11-.19s-.08-.12-.12-.2a.35.35 0 00-.19-.15.22.22 0 00-.24 0h-.19a.3.3 0 00-.2 0H230.49a.64.64 0 00-.28.16 1 1 0 000 .31M192.76 5V14.56c0 .12-.08.11-.08.23V17.59c0 .12.08.11.08.23V23.88a.58.58 0 01-.08.28v.23a.45.45 0 010 .23c0 .08-.08.16-.08.24a1.55 1.55 0 00-.07.23.47.47 0 010 .23c0 .08-.12.12-.16.2s0 .15-.08.23l-.15.16-.2.19a.78.78 0 01-.19.12.62.62 0 01-.2.11.3.3 0 00-.11.24.24.24 0 000 .23l.08.23a.51.51 0 010 .24v.27a.8.8 0 00.16.23H192.61c.07 0 .16-.08.24-.08h2.59c.08 0 .16-.08.23-.08h.47c.08 0 .16.08.23.08H198c.07 0 .16-.08.24-.08s.15.08.23.08h.24c.07 0 .15-.08.23-.08H201.04c.08 0 .15.08.23.08s.16-.08.23-.08h2.34c.07 0 .15.08.23.08h.27c.08 0 .16-.08.23-.08H210.4a.51.51 0 00.24 0h.19c.08 0 .16.08.24.08h.23a.64.64 0 00.19.08c.08 0 .16 0 .23.07s.16 0 .2.12.12.08.19.12a.33.33 0 00.24.11h1.01a.81.81 0 00.27 0c.08-.08.08-.16.12-.24l.07-.23v-.23c0-.11 0-.08.08-.2s.08-.12.12-.23 0-.12 0-.24l.08-.23.07-.19.08-.23v-.24l.08-.23c0-.12.07-.08.11-.2s0-.11 0-.23v-.23c0-.11.08-.08.12-.2l.08-.23v-.23c0-.11.07-.12.11-.24s0-.07.08-.19a.49.49 0 000-.23c0-.12.08-.12.08-.24l.07-.19.08-.23c0-.12 0-.12.08-.24s0-.11 0-.23l.08-.23a.66.66 0 00.07-.2l.08-.23.08-.23c0-.08 0-.08.08-.2l.08-.23c0-.08 0-.2-.08-.28a.42.42 0 00-.16-.19c-.08 0-.11 0-.19-.08a1.59 1.59 0 00-.2-.07c-.07 0-.07-.08-.15-.12l-.2-.08a.49.49 0 00-.23-.08.29.29 0 00-.19.12c-.08 0-.12.12-.2.16l-.19.11-.2.12-.23.11h-.23c-.07 0-.12.12-.2.12H202.47c-.12 0-.12.08-.24.08h-1.12a.43.43 0 01-.24-.08c-.07 0-.15 0-.23-.12a.36.36 0 01-.19-.15.34.34 0 01-.12-.2v-.54-.24-.23-.7V18.5 18a.58.58 0 01.08-.23c0-.08 0-.15.08-.23a.56.56 0 01.19-.16c.08 0 .12-.11.2-.11a.53.53 0 01.27 0h.66c.12 0 .12-.08.23-.08s.12.08.23.08.12-.08.24-.08H205.73c.11 0 .12.08.24.08H207.83c.07 0 .2.08.28.08h.46c.08 0 .16 0 .23.07s.16.08.24.08a.53.53 0 00.23.08l.2.12a.74.74 0 01.19.15c.08 0 .12.12.19.16s.12.07.2.15a.62.62 0 01.11.2.8.8 0 01.16.19.4.4 0 00.2.16h.23l.23-.08.23-.08h.28l.23-.12a.61.61 0 000-.27v-.23-.23-1.17V16.1v-.46-.24c0-.08-.08-.15-.08-.23v-.47-.46c0-.08-.08-.16-.08-.24v-.23c0-.08.08-.16.08-.23v-.24-.23c0-.08.08-.15.08-.23V12.18v-.24-.7-.23-.7a.53.53 0 00-.08-.23c-.08 0-.12-.12-.19-.12s-.12-.08-.24-.11-.15 0-.27 0l-.23-.08a.61.61 0 00-.27 0c-.08 0-.12.11-.16.19s-.08.12-.16.16l-.11.23a.7.7 0 00-.2.16l-.15.15c-.08 0-.16 0-.23.08s-.12.12-.2.15a.53.53 0 01-.23.08.51.51 0 01-.24 0 .45.45 0 01-.23 0 .47.47 0 01-.23 0c-.08 0-.16.08-.23.08h-4.2c-.11 0-.12-.08-.24-.08s-.11.08-.23.08H200.87c-.04 0-.15 0-.23-.12a.78.78 0 01-.19-.12.26.26 0 01-.08-.23.55.55 0 010-.27v-.4-.23-.23V9 7.87 7.6c0-.08.08-.12.16-.2a.59.59 0 01.15-.19.87.87 0 01.2-.12H211.97a.49.49 0 01.23 0h.7a.47.47 0 01.23 0h.24c.07 0 .15 0 .19.08s.16 0 .23.08.12.11.2.19.11 0 .19.12a.29.29 0 01.16.15.45.45 0 00.23 0 .24.24 0 00.23 0l.16-.08c.12-.07.12 0 .19-.11s.12 0 .24 0 0-.08.15-.12.16-.11.2-.19 0-.16 0-.27-.08-.08-.08-.2a.45.45 0 010-.23c0-.12-.08-.12-.12-.23s0-.12 0-.24-.07-.08-.11-.19l-.08-.24v-.23-.23c0-.12-.12-.08-.15-.2s0-.11 0-.23v-.23a.51.51 0 000-.24c0-.11-.08-.11-.12-.19s-.08-.12-.11-.23 0-.12 0-.24-.08-.07-.12-.19 0-.16 0-.23 0-.12-.08-.24 0-.11 0-.23l-.07-.23a1 1 0 01-.08-.2c0-.11-.08-.11-.12-.23a.45.45 0 000-.23v-.2l-.07-.23c0-.12-.08-.12-.12-.23a.3.3 0 010-.2V.68a1.21 1.21 0 01-.08-.19l-.07-.24c0-.08-.08-.15-.12-.19s-.16-.12-.27-.12h-1.01a.35.35 0 00-.24.12.52.52 0 01-.19.11l-.2.12c-.07 0-.11.08-.19.12H211c-.08 0-.16.07-.24.07H207.54c-.08 0-.16-.07-.24-.07H202.37c-.07 0-.16.07-.24.07H201c-.08 0-.16-.07-.24-.07h-1.63c-.08 0-.15.07-.23.07H195.63c-.08 0-.15.07-.23.07h-2.8c-.08 0-.15.07-.23.07h-.47a.28.28 0 00-.23.08.24.24 0 00-.12.23l-.07.24c0 .11 0 .11-.08.23l-.08.23c0 .08 0 .16.08.24a.41.41 0 00.15.19c.08 0 .08.12.16.16a.77.77 0 00.19.15c0 .08.12.08.2.16s.07.11.11.19l.12.23a.34.34 0 01.12.2.33.33 0 01.11.19.51.51 0 010 .24.47.47 0 010 .23.57.57 0 010 .27v.24a.45.45 0 010 .23.47.47 0 000 .23zM149 14.19c0 .08.08.15.08.23V15.35a.51.51 0 010 .24v.46c0 .08.08.16.08.24v.23a.53.53 0 01.08.23V17a.49.49 0 01.08.23 1.07 1.07 0 00.07.19.57.57 0 00.08.24v.23a.53.53 0 00.08.23.51.51 0 000 .24.58.58 0 00.08.23.34.34 0 00.07.19.51.51 0 000 .24c0 .07 0 .15.08.23s.08.12.12.19 0 .2 0 .28a.3.3 0 01.07.19l.12.23c0 .08.08.12.08.2a.53.53 0 01.08.23c0 .08.11.12.15.2s.08.11.12.19.08.12.12.19a2.17 2.17 0 00.07.24c0 .08.12.11.16.19a2 2 0 01.11.2c0 .07.08.11.12.19s0 .16.08.23l.15.16.12.23s.12.08.16.16l.11.23a.87.87 0 01.12.2s.16.07.19.11.12.12.16.2a.78.78 0 01.12.19c.07 0 .07.12.15.19s.16.08.2.12a.34.34 0 00.15.2s.08.11.16.15a.89.89 0 00.11.2.87.87 0 00.2.15c0 .08.15.08.19.16l.2.11.15.16c.08.08.12.15.16.19s.15 0 .23.08.08.16.16.19.15 0 .23.08a.44.44 0 00.15.2l.2.11a.78.78 0 01.19.12c.08 0 .12.12.2.16a.79.79 0 01.19.11l.23.12s.12 0 .2.08.12.11.19.15.16 0 .24.08.11.08.19.12a.66.66 0 00.24 0c.07 0 .11.12.19.16a.53.53 0 01.23.08h.2c.04 0 .15.11.23.15a.53.53 0 01.23 0 1.73 1.73 0 00.2 0c.08 0 .15.12.23.16s.12 0 .19 0a.88.88 0 00.28 0 .44.44 0 00.19.07c.08 0 .16 0 .23.08s.16 0 .24 0 .15 0 .23.08.16 0 .23 0h.9a.47.47 0 00.23 0h.23a.51.51 0 00.24 0h.46a.51.51 0 00.24 0h1.94c.07 0 .16-.07.24-.07h.23a.61.61 0 00.23 0h.7a.57.57 0 00.24-.08H166.23a.45.45 0 00.23 0h.47a.49.49 0 00.23-.08h.47a.45.45 0 00.23 0 .51.51 0 00.24 0h.46a.57.57 0 01.24-.08H169.23a.57.57 0 01.24-.08h.23l.23-.11H170.36a.58.58 0 01.23-.08.51.51 0 01.24 0 .49.49 0 01.23-.08c.08 0 .15 0 .23-.08a.36.36 0 00.2-.07.82.82 0 00.27 0c.08 0 .12-.08.19-.08s.16 0 .24-.08.15 0 .23 0 .16-.08.23-.08a.4.4 0 01.2-.07h.23a.49.49 0 00.23-.08h.24c.08 0 .15-.12.23-.12h.23a.51.51 0 01.24 0 .75.75 0 00.23-.07h.23c.07 0 .16-.07.24-.07s.15.07.23.07a.58.58 0 00.23 0s.12-.08.16-.16a.28.28 0 000-.19v-.24-.23-.23V24.6v-.23V22.78v-.24-.23-.23-.24-.46-.47-.43-2.1-.23-.23-.43-.23-.51a.61.61 0 010-.23v-.23-.24a.53.53 0 00.08-.23.49.49 0 000-.23c0-.08 0-.16.08-.24l.11-.23.16-.16a1 1 0 01.12-.19l.19-.19a.87.87 0 01.2-.12c0-.08.11-.12.15-.16a.56.56 0 00.16-.19c0-.08.11-.16.07-.23s-.07-.12-.11-.24 0-.15 0-.27-.08-.12-.08-.23a.87.87 0 00-.12-.2.29.29 0 00-.23-.07H167.41a.55.55 0 00-.24.07.86.86 0 00-.15.2v.23c0 .12-.08.12-.08.23s-.08.12-.08.24v.27a.31.31 0 00.16.16c.08 0 .11.15.19.19s.16 0 .24.12a1 1 0 01.11.19c.08 0 .12.12.2.15a2.17 2.17 0 00.07.24c0 .08.12.12.16.19a.57.57 0 01.08.24 1.55 1.55 0 01.07.23v.23a.57.57 0 00.08.24v3.94c0 .11.08.12.08.2v.23a.55.55 0 010 .27c0 .08-.12.12-.15.19s-.12.16-.2.2a.68.68 0 01-.23.12.53.53 0 00-.23 0c-.08 0-.12.07-.2.07h-.23c-.08 0-.16.08-.24.12s-.15 0-.23 0a.47.47 0 01-.23 0 .58.58 0 01-.23.08h-.24c-.08 0-.15.08-.23.12s-.16-.08-.23 0h-1.67c-.08 0-.15-.08-.23-.08h-.47c-.08 0-.15 0-.23-.08s-.15 0-.23 0-.16-.08-.24-.08a.49.49 0 00-.19 0c-.08 0-.16 0-.23-.08a.57.57 0 01-.24-.08.58.58 0 01-.23-.08.36.36 0 01-.19-.08L161 21c-.08 0-.11 0-.19-.08s-.16 0-.24-.08a1.18 1.18 0 00-.19-.11l-.23-.12a.87.87 0 00-.2-.12 1.43 1.43 0 00-.15-.11c-.08-.08-.16-.08-.24-.12s-.11-.08-.19-.16a.44.44 0 01-.16-.15.85.85 0 01-.19-.16.59.59 0 00-.16-.15l-.15-.16c-.08-.08-.16-.08-.2-.15s-.11-.12-.15-.16-.12-.12-.16-.19 0-.16-.11-.24-.12-.07-.16-.15a.86.86 0 01-.15-.2s0-.11-.08-.19a.87.87 0 00-.12-.2c0-.07-.12-.15-.12-.19a1.55 1.55 0 00-.07-.23c0-.08-.12-.16-.12-.2a.49.49 0 01-.08-.23c0-.08 0-.16-.07-.23s0-.16 0-.24a.49.49 0 01-.08-.23.28.28 0 010-.19l-.12-.24v-.23c0-.08-.07-.16-.07-.23v-.24-.23a.49.49 0 010-.23v-.24c0-.07-.08-.15-.08-.23v-.23-.24-.23-.23-.24a.45.45 0 000-.23v-.23-.24a.55.55 0 01.07-.23v-.23a.57.57 0 00.08-.24.45.45 0 000-.23v-.23a.62.62 0 00.11-.2c0-.07.12-.11.12-.19a.58.58 0 00.08-.23 2 2 0 00.11-.2v-.23c0-.08.12-.12.16-.2s.08-.11.12-.19a.8.8 0 01.11-.23c0-.08.08-.12.12-.2s.12-.07.16-.15a.87.87 0 00.15-.2s0-.15.12-.19a.38.38 0 01.19-.16l.16-.15a.59.59 0 01.15-.16c.08-.08.16-.08.2-.15s.11-.12.15-.16l.24-.11.15-.16.23-.12a.59.59 0 01.16-.15c.08 0 .15 0 .23-.08a.34.34 0 01.2-.12c.07 0 .11-.11.19-.15h.47l.24-.12c.08 0 .15 0 .19-.08a.73.73 0 00.24-.07.58.58 0 00.23-.08c.08 0 .11-.08.19-.08s.16 0 .24-.08h.23a.58.58 0 01.23-.08.65.65 0 01.24 0 .58.58 0 01.23 0H164.19c.08 0 .16-.08.24-.08s.15.08.23.08h.7a.47.47 0 01.23 0h.64c.08 0 .16.11.23.11h.24c.07 0 .15 0 .23.08h.23a.51.51 0 00.24 0c.07 0 .11.12.19.16a.58.58 0 01.23 0h.24c.08 0 .11.12.19.16s.16 0 .23 0l.24.11h.19c.04 0 .16 0 .24.08s.11.12.19.16a.56.56 0 01.19.11l.24.12a.78.78 0 00.19.12l.2.11s.15 0 .23.08a1.79 1.79 0 01.19.16 1.53 1.53 0 01.16.11l.19.2s.12.07.16.11.15.12.19.16a.38.38 0 01.16.19.44.44 0 01.15.16c.08.08.16.08.2.15s.08.12.15.2l.16.15c0 .08.12.12.15.2s0 .15.08.23l.16.16c.04.04 0 .19.08.23a.2.2 0 00.19.12c.08 0 .12.11.19.07s.12 0 .24 0 .11 0 .23-.07h.51c.12 0 .11-.08.23-.08h.15c.03 0 .08-.12.12-.16a.31.31 0 000-.19v-.23-.24-.23a.53.53 0 01-.08-.23v-.94a.49.49 0 01-.08-.23V8v-.73a.62.62 0 00.03-.27v-.2-.23-.23a.51.51 0 000-.24c0-.08.08-.15.08-.23V5.4a.45.45 0 010-.23V4.9c0-.08-.08-.12-.08-.2v-.27-.23-.47V3v-.23a.49.49 0 00-.08-.23V2.1c0-.08-.07-.16-.07-.23a.65.65 0 000-.24V1.4c0-.08-.07-.16-.07-.23V.93c0-.07 0-.19-.12-.23a.34.34 0 00-.27-.12h-.9c-.07 0-.11 0-.19.08a.55.55 0 00-.12.16 1.06 1.06 0 01-.11.19.4.4 0 01-.2.16l-.19.11h-.23a.51.51 0 01-.24 0h-.23a.45.45 0 01-.23 0 .51.51 0 01-.24 0c-.08 0-.15-.07-.23-.07l-.23-.12a.51.51 0 01-.24 0 .53.53 0 01-.23-.08.45.45 0 01-.23 0 .55.55 0 01-.24-.07h-.23c-.08 0-.12-.08-.19-.12a.51.51 0 01-.24 0c-.08 0-.15-.07-.23-.07h-.7c-.08 0-.16 0-.23-.08h-.24c-.07 0-.15 0-.23-.08s-.16 0-.23 0H166a.66.66 0 01-.24 0h-3.33a.49.49 0 01-.23 0 .51.51 0 00-.24 0h-.46a2.17 2.17 0 01-.24.07.49.49 0 00-.23 0 .47.47 0 00-.23 0h-.24a.58.58 0 00-.23.08h-.23a.31.31 0 01-.2.08h-.7c-.08 0-.15.07-.23.07s-.12.08-.19.08h-.28c-.08 0-.11.12-.19.12a.47.47 0 01-.23 0 .73.73 0 01-.24.07.55.55 0 01-.19.08c-.08 0-.16.12-.23.12s-.16 0-.24.08a.33.33 0 01-.19.07.62.62 0 00-.19.12c-.08 0-.16 0-.24.08l-.23.11s-.08.12-.16.16-.15 0-.23 0-.12.15-.2.15a.62.62 0 01-.19.12l-.23.12a.62.62 0 01-.2.11c-.07 0-.11.08-.19.12l-.16.16-.23.11s-.08.12-.16.16-.15 0-.23.11a.78.78 0 01-.19.12s-.08.12-.16.2-.08.11-.15.15-.12.08-.2.16a.79.79 0 01-.19.11l-.16.16A.66.66 0 01153 4s-.12.08-.16.16a.41.41 0 00-.19.15l-.16.16a.66.66 0 01-.15.19l-.16.16a.66.66 0 01-.15.19c0 .08 0 .16-.08.24a.38.38 0 00-.2.15 1.53 1.53 0 00-.11.16 1.79 1.79 0 00-.16.19c0 .08 0 .16-.08.23s-.15.08-.19.16 0 .16-.08.23l-.15.16c0 .08 0 .15-.08.23s-.12.12-.16.2a1.55 1.55 0 00-.07.23 1 1 0 00-.12.19c0 .08-.08.12-.12.2l-.12.23s-.07.12-.11.2 0 .11-.08.19 0 .16-.08.23a2 2 0 00-.11.2v.27a1 1 0 00-.12.19c0 .08-.08.16-.08.24a.28.28 0 00-.08.19v.24a.58.58 0 01-.08.23.47.47 0 010 .23v.23c0 .07-.08.12-.12.2s0 .19 0 .27-.07.12-.11.2 0 .15 0 .23a.53.53 0 01-.08.23v.23c0 .07-.08.16-.08.24a.47.47 0 000 .23v1.89M124.47 16a.36.36 0 010 .2.25.25 0 01-.08.15.31.31 0 01-.16.16H120s-.12-.08-.16-.12 0-.15 0-.19a.46.46 0 010-.2v-.23a1.21 1.21 0 01.08-.19c.08-.12 0-.12.08-.24s.08-.11.15-.23 0-.12 0-.23.08-.08.12-.2l.08-.23v-.23c0-.11.07-.08.11-.2l.08-.23v-.23c0-.11.08-.08.16-.2l.07-.23a1 1 0 01.08-.2v-.27c0-.12.08-.08.12-.19l.07-.24c0-.07.08-.07.12-.19s0-.12 0-.23l.08-.24.07-.19a.57.57 0 01.12-.23l.08-.24v-.23c0-.12.11-.08.19-.16s.12-.11.2-.11a.37.37 0 01.23.11.31.31 0 01.08.2c0 .12.08.08.11.19s.08.12.12.24 0 .11 0 .23.08.08.15.19 0 .12 0 .24l.41.19.08.23c0 .08.08.08.12.2l.07.23a2 2 0 01.08.23c0 .08.08.08.12.2l.08.23c0 .12 0 .08.08.2a.53.53 0 00.11.23l.08.23v.24c0 .12.08.07.11.19l.08.23.08.24a.71.71 0 01.08.19v.23c0 .07.07.12.11.2s0 .12.08.23 0 .12.08.23m3.42-11c0-.08 0-.16-.08-.24s0-.15-.08-.23a.3.3 0 00-.07-.2.42.42 0 00-.08-.23v-.27c0-.08-.08-.16-.08-.23v-.24-.23c0-.08.08-.16.08-.23a.51.51 0 010-.24.58.58 0 01.08-.23s.07-.15.11-.19a.4.4 0 01.2-.16.4.4 0 00.15-.19v-.24a.69.69 0 00-.07-.19 1 1 0 00-.08-.2.28.28 0 000-.19c0-.12-.08-.12-.12-.19a.23.23 0 00-.11-.2.31.31 0 00-.2-.08h-5.44c-.08 0-.16.07-.23.07h-.47c-.08 0-.16-.07-.23-.07h-2.37c-.07 0-.16-.07-.24-.07h-.77c-.08 0-.15-.07-.23-.07h-.7a.26.26 0 00-.19.08.7.7 0 00-.16.2.71.71 0 00-.08.19c0 .08-.07.08-.11.16a.49.49 0 010 .23.28.28 0 000 .19.51.51 0 000 .24.85.85 0 00.16.19c.07 0 .07.12.15.2s.08.11.12.15.11.16.11.23v.7a.78.78 0 010 .28c0 .07 0 .11-.08.19a.63.63 0 010 .27v.23c0 .07 0 .16-.08.24s-.08.11-.12.19-.08.16-.11.24l-.08.23a1.21 1.21 0 00-.08.19v.24c0 .12-.11.07-.15.19s0 .12 0 .23a.34.34 0 01-.12.2l-.08.23c0 .12-.08.08-.11.2s0 .11 0 .23-.08.12-.12.19l-.08.24a1.21 1.21 0 01-.08.19c-.07.12 0 .12-.07.23a.68.68 0 01-.12.24v.19c0 .08-.08.12-.12.23a1.59 1.59 0 01-.07.2c0 .12-.08.12-.12.23a1 1 0 00-.08.2l-.07.23c-.08.08 0 .12-.08.23a1 1 0 00-.08.2.35.35 0 01-.12.19l-.07.23v.24c0 .12-.12.08-.16.19s0 .12 0 .24a1.21 1.21 0 01-.38.35c0 .12-.07.12-.11.23s-.08.08-.12.2l-.08.23v.19c0 .07-.11.12-.15.2s0 .15 0 .23-.08.12-.12.24a1.67 1.67 0 00-.07.19l-.08.23c-.08.12 0 .12-.08.2l-.08.23c0 .12-.07.08-.15.19s0 .12 0 .24a.35.35 0 01-.12.19v.24a1 1 0 01-.11.23c0 .12 0 .08-.08.19l-.08.24c0 .11-.08.07-.12.19l-.07.2c-.08.11 0 .15-.08.27s-.08.08-.12.19 0 .12 0 .2-.07.11-.11.23l-.08.23v.2a.57.57 0 00-.12.23c0 .08-.07.08-.11.19s0 .12-.08.24a1.21 1.21 0 00-.08.19c0 .12-.08.12-.11.23a1 1 0 00-.08.2v.23a.34.34 0 01-.12.2c0 .11-.08.11-.12.23s0 .12 0 .23-.08.08-.12.2 0 .11-.08.23-.08.08-.11.19 0 .12 0 .24a1.21 1.21 0 00-.08.19c0 .12-.08.12-.12.24a.71.71 0 00-.08.19c0 .12-.07.12-.11.19s0 .12 0 .24a.57.57 0 00-.12.23 1.21 1.21 0 00-.08.19c0 .12-.07.12-.11.2s0 .12-.08.23-.08.12-.12.2l-.07.23v.23c0 .11-.08.08-.16.2a1.21 1.21 0 01-.08.19v.27a1.63 1.63 0 00-.11.2v.23a.87.87 0 01-.12.2c0 .07-.11.15-.11.19s0 .16-.08.23 0 .16-.08.24-.08.11-.12.19a.75.75 0 00-.07.23c0 .08-.08.12-.12.2s0 .15-.08.23-.11.12-.15.2a1 1 0 01-.12.19c0 .08-.08.12-.12.19s-.07.16-.11.2l-.2.19a.59.59 0 00-.15.16.87.87 0 00-.2.12c-.07 0-.11.11-.19.15a.4.4 0 00-.2.16.59.59 0 000 .23v.7a.31.31 0 00.16.23c.08 0 .15.12.23.12H113.4c.12 0 .12-.08.24-.08h1.9c.12 0 .12-.08.23-.08H116.67a.71.71 0 00.15-.15l.08-.24a.93.93 0 01.12-.19.66.66 0 00-.02-.09c0-.11.08-.07.12-.19a.33.33 0 000-.27c0-.08-.08-.12-.16-.2a.35.35 0 01-.19-.15s-.08-.16-.12-.2a.48.48 0 01-.07-.23v-.47-.23-.27-.23c0-.07.07-.12.07-.2s0-.15.08-.23a.51.51 0 010-.24.49.49 0 00.08-.23c0-.08 0-.15.08-.23a.72.72 0 01.12-.27 2.55 2.55 0 00.08-.28.33.33 0 01.16-.15.31.31 0 01.19 0H118.37c.12 0 .12.08.24.08h1.86c.12 0 .12-.08.23-.08h2.1c.11 0 .12-.08.24-.08H126.03c.12 0 .12-.08.23-.08h.24a.33.33 0 01.23.08.25.25 0 01.15.19c.08.12 0 .16.08.28s0 .15.12.27a.47.47 0 010 .23l.11.23a.68.68 0 01.08.2v.27c0 .08.08.12.12.2s0 .19 0 .27.07.15.07.19v.27a.65.65 0 010 .24v.23a.64.64 0 01-.16.19c0 .08-.12.12-.16.2s-.07.16-.11.19-.16.12-.2.2.08.15.12.27 0 .12 0 .19l.08.24a.32.32 0 01.11.19c0 .08.08.08.12.16a.29.29 0 00.16.15h1.12c.12 0 .12-.08.24-.08s.11.08.23.08h1.16c.11 0 .12-.08.24-.08s.11.08.23.08H131.57c.11 0 .12.08.24.08h.97c.12 0 .12-.08.23-.08h1.92c.11 0 .12.08.24.08h.47c.12 0 .11-.08.23-.08h.7c.11 0 .11.08.23.08h.2a.6.6 0 00.28-.12l.11-.23a.45.45 0 010-.23V27a.45.45 0 000-.23.24.24 0 000-.23.33.33 0 00-.15-.16l-.24-.11s-.08-.16-.15-.2-.16-.08-.2-.12-.08-.15-.12-.19a.87.87 0 01-.15-.2 1 1 0 00-.12-.19c0-.08-.11-.12-.15-.19s-.08-.12-.12-.2 0-.15-.08-.23-.11-.12-.15-.2 0-.11-.08-.19a.55.55 0 010-.23c0-.08-.15-.12-.15-.2s0-.15-.08-.23a.62.62 0 00-.12-.19v-.28c0-.08-.11-.11-.15-.19s0-.12-.08-.2 0-.11 0-.23l-.08-.23c0-.12-.08-.12-.11-.2s0-.11 0-.23-.12-.08-.16-.19 0-.12 0-.24-.07-.11-.11-.19l-.08-.24a.35.35 0 00-.12-.19v-.23l-.07-.24c0-.11-.08-.07-.12-.19s-.08-.12-.12-.19 0-.12 0-.24a1.44 1.44 0 01-.11-.19 1.67 1.67 0 00-.08-.24l-.08-.23a1.21 1.21 0 00-.08-.19l-.07-.24a.73.73 0 00-.12-.23v-.19c0-.07-.12-.12-.16-.2s0-.11-.07-.23-.08-.08-.12-.2 0-.11 0-.23l-.08-.23a1.59 1.59 0 00-.07-.2.57.57 0 01-.12-.23.93.93 0 00-.12-.19v-.24a.69.69 0 00-.07-.19c0-.12-.08-.12-.12-.23s0-.08-.12-.2l-.07-.23v-.23c0-.11-.08-.08-.12-.2s0-.12 0-.23 0-.12-.12-.2-.07-.07-.11-.19l-.08-.23c0-.12 0-.12-.08-.24s-.08-.08-.11-.19 0-.12 0-.24a1.21 1.21 0 00-.08-.19l-.08-.23c-.08-.12-.11-.08-.15-.2s0-.11 0-.23l-.08-.23a1 1 0 01-.08-.2c0-.11-.08-.11-.12-.19s-.07-.12-.11-.24 0-.11 0-.23 0-.08-.12-.19 0-.12-.08-.24-.07-.07-.11-.19 0-.12 0-.23-.12-.08-.16-.2 0-.11 0-.23v-.23c0-.11-.12-.08-.16-.2a1.21 1.21 0 01-.08-.19v-.24c0-.12-.11-.07-.15-.19s0-.12 0-.23l-.08-.24a.71.71 0 01-.08-.19.65.65 0 00-.15-.2l-.08-.23v-.23c0-.12-.08-.08-.11-.2a.35.35 0 00-.12-.19l-.08-.23a1 1 0 00-.08-.2.7.7 0 01-.11-.23v-.23c0-.11-.08-.08-.12-.2l-.08-.23-.07-.2-.08-.23c0-.12 0-.12-.08-.23s-.08-.08-.12-.2 0-.07-.11-.19 0-.12 0-.23m-50.1 2.1H83.4c.07 0 .16.07.2.07H84.53a.51.51 0 01.24 0 .36.36 0 00.19.08.51.51 0 00.23.07c.08 0 .12.12.2.16s.15 0 .23 0 .08.15.16.19l.15.12c.08.08.16.08.2.16s.07.11.11.19a.85.85 0 01.16.19l.15.16v.23l.12.24a.44.44 0 000 .23c0 .08.08.12.08.19V10.23c0 .07-.08.16-.08.24v.23c0 .08-.08.12-.08.19v.24l-.12.23s-.07.12-.11.16l-.12.23-.15.15c0 .08-.12.12-.16.16s-.12.12-.19.16l-.2.11c0 .08-.12.08-.19.12l-.2.12a.68.68 0 01-.23.07s-.12 0-.19.08-.16 0-.24.08-.15 0-.23 0h-.7a1.73 1.73 0 01-.2 0H78.62a.66.66 0 01-.27 0 .22.22 0 01-.19-.12.4.4 0 01-.2-.16.45.45 0 010-.23.68.68 0 01-.07-.23v-.24-.27-.23-.23-.24c0-.12.08-.11.08-.23v-.23V10v-.75-.23c0-.11-.08-.12-.08-.24v-.46-.23-.24a.55.55 0 010-.27c0-.08 0-.16.07-.2l.2-.19a.53.53 0 01.23-.08.49.49 0 01.23 0m16 2.88v-.93-.24-.23a.45.45 0 000-.23v-.24c0-.07-.08-.15-.08-.19a.48.48 0 00-.07-.23v-.28c0-.08-.12-.11-.12-.19a.49.49 0 010-.23.57.57 0 01-.08-.24c0-.07 0-.15-.08-.23a.69.69 0 000-.23.31.31 0 01-.19-.2c0-.08-.12-.15-.12-.19s0-.2-.08-.24-.11-.11-.15-.19 0-.19 0-.23l-.2-.25a.63.63 0 01-.11-.19.56.56 0 00-.16-.19s-.08-.12-.12-.16a.51.51 0 00-.15-.19.87.87 0 00-.12-.2c0-.08-.12-.11-.15-.19a.87.87 0 00-.12-.2c0-.07-.16-.07-.19-.15s-.08-.16-.12-.2a.44.44 0 00-.2-.15c0-.08-.11-.08-.19-.16a1 1 0 01-.12-.19.85.85 0 01-.19-.16c-.08 0-.16 0-.23-.08a.42.42 0 00-.16-.19 1 1 0 00-.19-.12c-.08 0-.12-.11-.16-.15s-.19 0-.23-.08-.12-.12-.2-.15-.11-.08-.19-.12-.16 0-.23-.08-.12-.12-.2-.16a2 2 0 01-.23-.07c-.08 0-.12-.08-.2-.08s-.15 0-.23-.08a.53.53 0 01-.23-.08l-.2-.11a.49.49 0 01-.23 0h-.23a.57.57 0 00-.24-.12.45.45 0 00-.23 0 1.49 1.49 0 01-.19 0 2.17 2.17 0 01-.24-.07H87a.49.49 0 00-.23 0 .51.51 0 00-.24 0h-.46a.57.57 0 00-.24-.08H81.64c-.07 0-.16.07-.24.07h-1.63c-.08 0-.15-.07-.23-.07h-1.4c-.08 0-.14-.3-.23-.3h-1.64c-.07 0-.15.07-.23.07h-4.28c-.08 0-.15-.07-.23-.07h-2.06c-.08 0-.15.07-.23.07a.53.53 0 00-.27 0 .34.34 0 00-.12.2v.27c0 .12-.08.11-.12.23s0 .12 0 .23v.24a.67.67 0 00.16.19c.08 0 .12.12.16.16s.19.08.23.11a.52.52 0 01.15.2c.08 0 .08.15.12.19s.12.12.16.2 0 .15.07.23.12.12.12.19a.57.57 0 01.08.24.47.47 0 010 .23c0 .08 0 .16.07.23V6.1c0 .12.08.12.08.23s-.08.12-.08.24V8.43c0 .11-.08.12-.08.24V16.83c0 .12-.08.12-.08.23V19.63c0 .11.08.11.08.23s-.08.12-.08.23v2.1c0 .12.08.12.08.24v.23c0 .12-.08.12-.08.23V23.82a.65.65 0 000 .28c0 .07-.07.15-.07.23a.49.49 0 000 .23v.24l-.12.23c0 .08-.08.12-.12.19s0 .2 0 .24-.11.11-.19.19-.08.12-.12.2-.11.11-.19.15-.08.12-.16.16a.53.53 0 01-.19.15.34.34 0 00-.19.16v.27l.07.23c0 .12 0 .12.08.24s0 .15 0 .27a.34.34 0 00.2.15c.07.08.11.16.23.16H74.1c.08 0 .15-.08.23-.08h2.33a1.73 1.73 0 01.2 0h.23c.08 0 .15-.08.23-.08h.47c.08 0 .15.08.23.08h.7a.33.33 0 00.27-.12.78.78 0 00.12-.19c0-.12 0-.12.08-.27l.08-.24v-.23a.37.37 0 000-.27.34.34 0 00-.15-.2c-.08 0-.2 0-.23-.07l-.2-.2-.19-.15a.87.87 0 01-.12-.2 1.86 1.86 0 01-.11-.19l-.12-.24a.78.78 0 01-.12-.19v-.23a.57.57 0 00-.08-.24v-.23a.75.75 0 01-.07-.23v-.28-.23-.46-.35-.23-.24V22v-.47-.23-.74-.23-.7-.24a.58.58 0 01.08-.23A.56.56 0 0178 19c0-.08.12-.12.2-.2a.79.79 0 01.19-.11h.23c.12 0 .12-.08.24-.08h1.44l.23.11c.08 0 .08.16.11.24s.12 0 .2.11 0 .12.12.24l.15.15c.08.08 0 .12.12.2s.12.07.19.15l.08.24a.64.64 0 01.16.19l.15.16c.08.11 0 .11.12.23l.15.15a.87.87 0 01.16.2.93.93 0 00.12.19.39.39 0 01.11.2l.16.15a1.29 1.29 0 00.15.2c.08.08 0 .11.12.19a.87.87 0 01.16.2c.07.07.11 0 .15.15s0 .12.12.2a.74.74 0 00.15.19.93.93 0 00.12.19.65.65 0 01.15.2c0 .08.12 0 .2.15s0 .12.08.2.11.08.19.15a1.28 1.28 0 01.12.2c.08.08 0 .11.08.23s.07 0 .07 0a.7.7 0 00.16.2c0 .07.08.11.12.19l.11.23a.87.87 0 01.12.2c0 .08.08.12.11.19a.57.57 0 00.08.24V26.15l-.12.23a.31.31 0 000 .31v.24c0 .12.07.07.11.19a.71.71 0 00.08.19l.08.24c0 .08 0 .12.11.19a.43.43 0 00.24 0c.12 0 .12.08.23.08h.23c.12 0 .12-.08.24-.08h.46c.11 0 .12-.08.24-.08H88.95c.11 0 .12.08.24.08h.23c.12 0 .12-.08.23-.08h2.29c.12 0 .11.08.23.08H93.1c.12 0 .12-.08.24-.08h.23c.11 0 .11.08.23.08s.12-.08.23-.08.12.08.24.08.11-.08.23-.08h1.17a.35.35 0 00.11-.23c0-.08.08-.08.12-.2s0-.07 0-.19a1 1 0 00.08-.2v-.19a.68.68 0 00.07-.23.46.46 0 00-.19-.2.62.62 0 01-.2-.11.85.85 0 01-.19-.16s-.08-.12-.16-.15a.34.34 0 00-.15-.2s-.08-.12-.16-.15-.15-.08-.19-.16l-.16-.16s-.07-.15-.11-.19-.16-.08-.2-.15-.07-.16-.11-.2-.12-.12-.16-.19-.08-.12-.15-.2a.78.78 0 01-.12-.19l-.16-.16c0-.08-.07-.11-.11-.19s-.16-.08-.2-.16-.07-.11-.11-.19-.08-.12-.16-.2V23l-.15-.19c0-.08-.12 0-.16-.12s0-.16-.11-.23l-.16-.16c-.08-.12-.08-.08-.15-.19a.34.34 0 01-.12-.2.35.35 0 01-.12-.19.65.65 0 01-.15-.2c-.08-.07-.08 0-.16-.15a.65.65 0 01-.15-.2.49.49 0 01-.12-.15c-.08-.12 0-.12-.12-.24s-.11 0-.19-.15 0-.08-.12-.2l-.15-.15c-.08-.12 0-.12-.12-.19s-.08-.08-.16-.2l-.15-.19c0-.08-.08-.08-.16-.16s0-.12-.07-.23l-.16-.16c0-.11-.12-.08-.19-.15s0-.12-.08-.2-.12-.08-.2-.19l-.11-.2-.16-.15v-.2a1.49 1.49 0 010-.19s0-.12.08-.16a.89.89 0 01.2-.11.58.58 0 00.23 0 1 1 0 01.19-.12.62.62 0 01.2-.11.53.53 0 01.23-.08.87.87 0 01.2-.16.48.48 0 01.19-.11c.08 0 .15 0 .23-.08l.2-.12c.07 0 .11-.12.15-.15s.12-.12.2-.16a.78.78 0 00.19-.12c.08-.07.16-.07.2-.15s.07-.12.15-.2.16-.07.2-.11a.62.62 0 01.11-.2l.2-.19s.11-.08.15-.16l.13-.18c0-.08.11-.12.15-.2a.78.78 0 01.12-.19.87.87 0 01.12-.2c.07-.07.11-.15.15-.19a.78.78 0 01.12-.19l.11-.24c0-.08.08-.11.12-.19s.08-.16.08-.24a.45.45 0 000-.23 1.86 1.86 0 00.11-.19.51.51 0 000-.24c0-.07.12-.15.12-.23a.47.47 0 000-.23c0-.08 0-.12.08-.2a.75.75 0 01.07-.23.49.49 0 01.08-.23c0-.08-.08-.16 0-.24a.49.49 0 010-.23v-.23a.57.57 0 01.08-.24c0-.07-.08-.15-.08-.23s.08-.15.08-.23v-.47zM45 5v4.43c0 .12-.07.11-.07.23v.7c0 .12-.07.12-.07.23V16.19c0 .12.07.12.07.23s-.07.12-.07.24.07.11.07.23v1.4c0 .12.07.11.07.23s-.07.12-.07.23.07.12.07.24v5.4c0 .08-.08.16-.12.23s0 .16 0 .24v.23a.53.53 0 01-.08.23s0 .16-.07.2-.12.15-.16.23-.12.08-.15.16a.87.87 0 01-.2.15c0 .08-.12.12-.15.16s-.12.11-.2.15a.38.38 0 00-.19.16.32.32 0 000 .27l.07.23a.51.51 0 010 .24c0 .11.08.11.12.23a.32.32 0 00.08.27.55.55 0 00.27 0h.66c.08 0 .16.08.23.08s.16-.08.24-.08.15.08.23.08h.7c.08 0 .16-.08.23-.08s.16.08.24.08.15-.08.23-.08H52.29c.07 0 .16.08.24.08h.23c.08 0 .16-.08.23-.08h.7a.57.57 0 00.24-.08.24.24 0 00.11-.23l.08-.23c0-.12 0-.12.08-.24s0-.11 0-.23a.63.63 0 000-.27c0-.08-.12-.12-.2-.2s-.15 0-.19-.07l-.2-.2a.71.71 0 01-.15-.15c-.08 0-.08-.12-.12-.2a.59.59 0 01-.15-.19c0-.08-.12-.16-.12-.2s0-.19-.08-.27-.08-.12-.11-.19a.51.51 0 000-.24.49.49 0 000-.23v-.23-.28-.23-.46-.24c0-.12.08-.11.08-.23s-.08-.12-.08-.23.08-.12.08-.24V22v-.7-.47c0-.11.08-.11.08-.23v-.23c0-.12-.08-.12-.08-.24v-.23-.23V19v-.24-.23-.23-.24-.23c0-.12.08-.12.08-.23v-.23-.24c0-.12-.08-.11-.08-.23v-.23-.24-.23-.7-.23-.94-1.43-.23-.47V11v-.23-.24-.23c0-.12.08-.12.08-.23V9.41v-.24c0-.12-.08-.11-.08-.23v-.7-.23-.47-.47-.23c0-.12-.08-.12-.08-.23s.08-.12.08-.24-.08-.11-.08-.23.08-.12.08-.23v-.24c0-.11-.08-.11-.08-.23v-.23-.7a.49.49 0 01.08-.23v-.51c0-.08.07-.15.07-.23s.08-.12.12-.2 0-.15 0-.23l.12-.23a2 2 0 01.11-.2c0-.08.12-.11.16-.19l.15-.16c.08 0 .12-.11.2-.15A.8.8 0 0154 2a.21.21 0 00.12-.19.57.57 0 00.08-.24l-.08-.23-.08-.23a.51.51 0 010-.24.4.4 0 00-.15-.23H52.77c-.08 0-.15-.07-.23-.07h-.24c-.07 0-.15.07-.23.07h-4.21c-.08 0-.15-.07-.23-.07h-.23c-.08 0-.16.07-.24.07h-1.63c-.08 0-.15.07-.23.07s-.16-.07-.24-.07h-.89a.54.54 0 00-.27.07.35.35 0 00-.12.24c0 .15-.08.11-.12.27s0 .11 0 .23a.58.58 0 010 .23c0 .12-.08.2 0 .28a.4.4 0 00.15.19l.24.12a.48.48 0 00.19.11.4.4 0 00.16.2.5.5 0 00.15.19c0 .08.08.12.12.2a.48.48 0 01.07.23c0 .08.08.12.12.19a.59.59 0 010 .28s0 .11.08.19 0 .16 0 .23a.78.78 0 000 .28v.46zM10.32 23.4l.11.23a.49.49 0 010 .23c0 .08 0 .16.08.24s.08.15.12.23 0 .16 0 .23a.51.51 0 010 .24v.2a.63.63 0 010 .23v.24a.45.45 0 000 .23c0 .08 0 .19-.08.23a.87.87 0 01-.16.2c0 .08-.15.08-.19.15s-.08.12-.12.2 0 .15 0 .23v.19a1 1 0 00.08.2v.19c0 .07.07.12.11.2a.21.21 0 00.12.19s.12.12.19.12h2.31c.11 0 .12-.08.24-.08h.23c.12 0 .12.08.23.08h1.11c.12 0 .12-.08.23-.08h.47c.12 0 .12.08.23.08h.2c.11 0 .11-.08.23-.08H17.9c.12 0 .11.08.23.08H19.96a.53.53 0 00.23-.08.64.64 0 00.12-.23.3.3 0 000-.2 1.67 1.67 0 00.07-.19c0-.08.08-.08.12-.2a.42.42 0 010-.19.24.24 0 000-.23.37.37 0 00-.12-.2.56.56 0 01-.19-.11l-.08-.17a1.18 1.18 0 01-.11-.19.66.66 0 010-.27v-.24-.23a.47.47 0 000-.23.51.51 0 000-.24c0-.07 0-.15.07-.27s.08-.11.08-.19 0-.16.08-.24a.58.58 0 01.08-.23v-.23c0-.08.12-.08.16-.2l.08-.23c.08-.08 0-.12.08-.19s.07-.12.11-.24 0-.11.08-.19l.08-.23c.1-.16.1-.16.1-.24a.93.93 0 00.12-.19c.08-.12 0-.16 0-.27s.08-.08.12-.2 0-.12.07-.19 0-.12.12-.24 0-.07.08-.19.12-.12.15-.2l.08-.23c.08-.08 0-.11.12-.19l.08-.24c0-.07 0-.11.07-.19l.08-.23c0-.12.08-.12.12-.2l.08-.23.07-.23c0-.08.08-.08.12-.2a.35.35 0 00.12-.19.89.89 0 01.11-.2v-.23a.73.73 0 00.12-.23 1 1 0 00.08-.2l.07-.23c.08-.12.08-.08.12-.2s.08-.07.12-.19 0-.12.08-.23l.07-.24c0-.07.08-.07.12-.19l.08-.23c0-.08.07-.08.15-.2s0-.08.08-.19 0-.12 0-.24.08-.11.12-.19a.7.7 0 01.11-.23 1 1 0 00.08-.2l.08-.23a.35.35 0 00.12-.19l.07-.24a1.21 1.21 0 00.08-.19c.08-.12.12-.08.16-.2l.07-.23a.29.29 0 01.12-.19c0-.12 0-.12.08-.24a1.21 1.21 0 01.08-.19.52.52 0 01.11-.24c0-.11 0-.07.12-.19a.71.71 0 01.08-.19c.07-.12 0-.16 0-.28s.07-.07.11-.19 0-.08.12-.19.08-.08.12-.2l.07-.23c.08-.08 0-.12.08-.24a.71.71 0 00.08-.19.73.73 0 00.12-.23c0-.08.07-.08.11-.2a.93.93 0 01.12-.19l.08-.23v-.24a.93.93 0 01.12-.19c0-.12 0-.08.12-.2s0-.11 0-.23a.7.7 0 01.11-.23c0-.08.08-.08.12-.2s0-.11.08-.19a.7.7 0 01.11-.23v-.2a.73.73 0 00.12-.23c0-.12.08-.08.12-.2a1.44 1.44 0 00.11-.19.57.57 0 01.43-.27v-.24a1.21 1.21 0 00.08-.19.86.86 0 01.19-.2c0-.07.08-.07.12-.19A.93.93 0 0128.2 6v-.24c0-.12.12-.08.16-.19s.08-.12.12-.19a.51.51 0 010-.24.56.56 0 00.07-.19c0-.08.12-.16.16-.24s0-.15.08-.19a.49.49 0 01.08-.23A.89.89 0 0129 4c0-.07.08-.15.08-.23s.08-.12.12-.19a2.17 2.17 0 00.07-.24c0-.08.08-.11.12-.19a.4.4 0 01.16-.2 1.86 1.86 0 01.11-.19l.16-.16a1.49 1.49 0 00.18-.15.4.4 0 01.2-.16s.12-.07.15-.15.12-.12.2-.16a.28.28 0 00.15-.15.51.51 0 000-.24.45.45 0 010-.23v-.23l-.09-.24c0-.07-.08-.15-.16-.19s-.12-.08-.23-.08H25.98c-.12 0-.12.07-.23.07h-.7c-.11 0-.12.07-.24.07H21a.28.28 0 00-.19 0c-.08 0-.16 0-.19.12s0 .15 0 .23-.08.08-.12.2 0 .11-.08.19-.08.08-.15.19 0 .16 0 .28a.21.21 0 00.11.19.4.4 0 00.2.16 1.55 1.55 0 01.07.23s0 .15.08.23a.3.3 0 010 .2v.74c0 .07 0 .15-.08.23s0 .15 0 .23 0 .16-.07.23a.51.51 0 010 .24c0 .08-.12.11-.16.19a.51.51 0 010 .24v.23c0 .12-.11.08-.15.19a.68.68 0 01-.12.24v.23c0 .12-.15.03-.15.09l-.08.24a.71.71 0 00-.08.19c0 .12-.08.12-.12.23a.66.66 0 01-.07.2l-.08.23c0 .12-.08.12-.12.2s0 .15-.08.23-.07.12-.11.23a1 1 0 00-.08.2c-.08.11 0 .11-.08.23l-.1.23c0 .08-.07.08-.11.2l-.08.23a1.21 1.21 0 00-.08.19.86.86 0 00-.11.24c0 .08 0 .12-.08.19l-.08.24c0 .11-.08.11-.12.19a.45.45 0 01-.11.23v.24c0 .12-.08.07-.12.19l-.08.23-.07.2c0 .12-.08.12-.12.23a.34.34 0 01-.12.2v.23l-.07.23c0 .12-.08.12-.12.2l-.08.23c0 .12-.08.12-.11.19l-.08.24A.35.35 0 0117 13l-.08.24v.23a.73.73 0 01-.12.23c0 .08-.08.08-.12.2s0 .11 0 .23-.08.08-.15.19 0 .12 0 .24-.08.11-.12.19a.57.57 0 01-.12.23l-.07.2v.23c0 .08-.08.12-.12.24s-.08.07-.11.19a.29.29 0 01-.12.19l-.08.24a.65.65 0 01-.12.15c-.07 0-.11.12-.19.12a.29.29 0 01-.19-.12.44.44 0 01-.2-.15 1 1 0 01-.08-.2c-.07-.11 0-.11-.11-.23s0-.12 0-.23 0-.12-.08-.2a.73.73 0 00-.12-.23c0-.12 0-.08-.11-.2s0-.11 0-.23-.08-.12-.12-.19l-.08-.24c0-.11-.07-.11-.11-.23s0-.12 0-.19a.68.68 0 01-.12-.24.4.4 0 00-.11-.19v-.23a.68.68 0 01-.12-.24c-.08-.08 0-.11-.08-.19l-.08-.24c0-.11-.07-.11-.11-.23a1.21 1.21 0 01-.08-.19c0-.12-.08-.08-.12-.2a.7.7 0 01-.11-.23c0-.12 0-.08-.08-.19a.68.68 0 01-.12-.24v-.23c0-.12-.07-.08-.15-.2l-.08-.23a1.21 1.21 0 01-.08-.19v-.24c0-.08-.07-.11-.15-.19s0-.12-.08-.23l-.08-.24a1.07 1.07 0 01-.07-.19c0-.12-.08-.12-.12-.24a.71.71 0 01-.08-.19c-.08-.12 0-.12-.08-.23a.69.69 0 01-.11-.2l-.08-.23-.43-.26c0-.12-.08-.08-.12-.2s0-.11 0-.23l-.08-.23c0-.12-.08-.08-.12-.2S11.13 7 11.09 7 11 6.84 11 6.72a1.21 1.21 0 00-.08-.19l-.08-.23c0-.12-.07-.12-.11-.24s0-.11 0-.23-.08-.08-.12-.19l-.08-.24c0-.07-.08-.07-.11-.19s0-.12 0-.23-.12-.16-.16-.24a.47.47 0 010-.23 2 2 0 01-.11-.2.49.49 0 000-.23.47.47 0 000-.23c0-.08-.08-.16-.08-.23v-.24-.27a.45.45 0 010-.23.57.57 0 01.08-.24.3.3 0 01-.15-.19.44.44 0 01.15-.19c0-.08 0-.16.12-.2a1.13 1.13 0 00.19-.19.68.68 0 000-.28 1.44 1.44 0 01-.11-.19.29.29 0 00-.12-.19c0-.12-.08-.08-.12-.2s0-.12 0-.23L9.89.62a.49.49 0 00-.23 0H9c-.07 0-.16-.07-.28-.07h-.46c-.12 0-.12.07-.24.07H4c-.1 0-.1-.07-.21-.07h-.24c-.11 0-.11.07-.23.07H1.65c-.12 0-.12-.07-.23-.07h-.24c-.11 0-.11.07-.23.07S.83.55.72.55H.48a.41.41 0 00-.27.11C.13.7.13.82.13.89l-.07.24v.23a.49.49 0 000 .23v.24A.41.41 0 00.17 2l.2.12a.78.78 0 01.19.12.87.87 0 00.2.15c0 .08.11.12.15.16s.09.17.09.25.11.11.15.19 0 .16.08.2a.8.8 0 00.16.19.55.55 0 01.07.24c0 .07.12.11.16.19s0 .16.08.19l.11.24c0 .07.08.11.12.19v.23c0 .08.12.16.16.24s0 .15.07.19a.57.57 0 00.08.24c0 .07 0 .15.08.23l.08.23a.66.66 0 01.1.21c0 .11.12.07.16.19a.57.57 0 00.12.23v.2l.07.23c.15.15.15.07.2.15s0 .11.08.23a1.21 1.21 0 01.08.19c0 .12.07.12.11.24s0 .11.08.19.08.12.12.2a.53.53 0 00.11.23 1.21 1.21 0 01.08.19l.08.24c0 .11.08.07.11.19s0 .12.08.23a1 1 0 00.08.2l.08.23.07.23c0 .08.08.08.12.2a1.21 1.21 0 00.08.19l.16.24a1.67 1.67 0 01.07.19l.08.23c.08.08 0 .12.08.2s0 .11.12.23a1.59 1.59 0 00.07.2c0 .11.12.07.16.19l.08.23c.07.08 0 .08.11.2s0 .11 0 .23l.08.23c0 .08.08.08.11.2l.08.23c0 .08.08.08.12.2a1.21 1.21 0 00.08.19.83.83 0 00.19.23v.28c0 .12.12 0 .16.15s0 .16 0 .24.11.07.19.19 0 .12 0 .23a.57.57 0 00.12.23 1 1 0 01.08.2c0 .12.07.08.11.19l.08.24a.35.35 0 01.12.19L7 16c.08.08 0 .12.08.2l.08.23c.08.12.08.08.12.2a1.44 1.44 0 01.11.19l.08.23c0 .12.08.12.12.2l.07.23c.08.12 0 .12.08.23s.08.08.12.2a.29.29 0 00.12.19l.07.24v.23c0 .12.12.08.16.19a1.59 1.59 0 01.07.2c0 .12.08.12.12.23s0 .12 0 .23.08.08.12.2.07.08.15.19 0 .12 0 .24 0 .08.12.19l.08.23c0 .08.07.08.11.2a.71.71 0 00.08.19l.08.24c0 .11.08.07.15.19l.08.23a1 1 0 01.08.2l.08.23.07.23a1 1 0 01.08.2c.08.12.08.08.16.19s0 .12 0 .24a.53.53 0 00.11.23c0 .08.08.08.12.16s0 .11.08.23M238.2 52.37a2.49 2.49 0 001.13-2.15 2.86 2.86 0 00-.3-1.37 2.36 2.36 0 00-.8-.88 6.75 6.75 0 00-1.08-.52c-.39-.14-.79-.27-1.18-.39a7.29 7.29 0 01-1.09-.4 2 2 0 01-.79-.64 1.69 1.69 0 01-.31-1 1.25 1.25 0 01.34-.9 1.33 1.33 0 011-.34 1.28 1.28 0 01.82.27 2.12 2.12 0 01.52.67l.39.77a2 2 0 00.51.66 1.18 1.18 0 00.8.28 1.07 1.07 0 00.8-.28 1 1 0 00.28-.75 2.11 2.11 0 00-1.17-1.77 5.18 5.18 0 00-2.91-.78 4.29 4.29 0 00-2.79.86 2.7 2.7 0 00-1 2.21 3.06 3.06 0 00.31 1.44 2.34 2.34 0 00.8.92 5.27 5.27 0 001.09.54c.39.15.79.28 1.19.39a8 8 0 011.08.36 2 2 0 01.8.59 1.44 1.44 0 01.3.93 1.09 1.09 0 01-.36.86 1.44 1.44 0 01-1 .31 1.84 1.84 0 01-1-.27 2 2 0 01-.67-.66q-.24-.39-.45-.78a2.3 2.3 0 00-.53-.66 1 1 0 00-.72-.28.9.9 0 00-1 1 2.2 2.2 0 001.22 1.79 5.53 5.53 0 003.08.79 4.69 4.69 0 002.77-.79m-15.06-4.22V44.6c0-.45.17-.68.51-.68h.2a1.6 1.6 0 011.28.83 3.72 3.72 0 01.58 2.15 2.49 2.49 0 01-.37 1.38 1.14 1.14 0 01-1 .55h-.53c-.44 0-.65-.23-.65-.68m.29 4.87c.23 0 .34-.09.34-.27v-.06a1 1 0 00-.31-.51 1 1 0 01-.32-.71v-1.64h1.18a4.36 4.36 0 003-1 3.24 3.24 0 001.1-2.57 2.85 2.85 0 00-1.23-2.54 5.91 5.91 0 00-3.29-.82h-3.54c-.23 0-.34.09-.34.27v.06a1.14 1.14 0 00.28.52 1.1 1.1 0 01.29.7v7a1.14 1.14 0 01-.29.71 1.08 1.08 0 00-.28.51v.06c0 .18.11.27.34.27zm-10.17 0h3.08c.23 0 .34-.09.34-.27v-.06a1 1 0 00-.31-.51 1.09 1.09 0 01-.32-.71v-7a1 1 0 01.32-.7 1.1 1.1 0 00.31-.52v-.06c0-.18-.11-.27-.34-.27h-3.08c-.23 0-.34.09-.34.27v.06a1 1 0 00.28.52 1.1 1.1 0 01.29.7v7a1.14 1.14 0 01-.29.71 1 1 0 00-.28.51v.06c0 .18.11.27.34.27M204 44.67a.9.9 0 01.15-.53.45.45 0 01.39-.2h.25a1.6 1.6 0 011.26.69 2.78 2.78 0 01.56 1.79 2.23 2.23 0 01-.36 1.38 1.14 1.14 0 01-.93.45h-.43a.84.84 0 01-.67-.25 1.24 1.24 0 01-.22-.84zm3.52 4.15a3 3 0 001.32-1.14 2.84 2.84 0 00.45-1.53 2.79 2.79 0 00-1.16-2.39 5.37 5.37 0 00-3.14-.82h-3.81c-.23 0-.34.09-.34.27v.06a1 1 0 00.28.52 1.08 1.08 0 01.28.7v7a1.13 1.13 0 01-.28.71 1 1 0 00-.28.51v.06c0 .18.11.27.34.27h3.12c.23 0 .34-.09.34-.27v-.06c0-.11-.11-.28-.32-.51a1.09 1.09 0 01-.32-.71v-2.23h1.31l1.2 2.24a.75.75 0 01.07.54 2.63 2.63 0 01-.25.35.52.52 0 00-.17.33v.06c0 .18.11.27.34.27h3.5c.23 0 .34-.09.34-.27v-.06a.4.4 0 00-.15-.3l-.45-.37a2.33 2.33 0 01-.49-.55zM195.11 53c.22 0 .34-.09.34-.27v-.06a1 1 0 00-.31-.51 1.1 1.1 0 01-.3-.71V44h.73a.83.83 0 01.6.27 2.23 2.23 0 01.43.59 2.72 2.72 0 00.37.58.57.57 0 00.42.27h.24a.39.39 0 00.29-.1.35.35 0 00.07-.29l-.3-1.95a.45.45 0 00-.48-.44h-7.3a.44.44 0 00-.48.44l-.28 1.93c0 .28.08.41.35.41h.24a.58.58 0 00.43-.27 3.13 3.13 0 00.36-.58 2 2 0 01.41-.59.79.79 0 01.59-.27h.75v7.46a1.1 1.1 0 01-.3.71 1 1 0 00-.31.51v.06q0 .27.33.27zm-14.89-1.38a1.59 1.59 0 01-.33-1.08v-5.92c0-.46.21-.68.64-.68h.16a2.44 2.44 0 011.73.74 4.86 4.86 0 011.2 2 7.61 7.61 0 01.43 2.59 3 3 0 01-.65 2.07 2.22 2.22 0 01-1.71.73h-.56a1.11 1.11 0 01-.91-.39m1 1.38a5.79 5.79 0 004-1.38 4.62 4.62 0 001.53-3.6 4.57 4.57 0 00-1.66-3.69 6.9 6.9 0 00-4.62-1.41h-3.35c-.22 0-.34.09-.34.27v.06a1.1 1.1 0 00.29.52 1.08 1.08 0 01.28.7v7a1.13 1.13 0 01-.28.71 1 1 0 00-.29.51v.06c0 .18.12.27.34.27zm-12.84-7.45l1.42 4h-2.84zm1.79-2a1 1 0 00-1-.68h-1.82q-.33 0-.33.27v.06a.67.67 0 00.18.35 3.12 3.12 0 01.31.49.57.57 0 010 .49l-2.65 6.87a2.21 2.21 0 01-.49.71c-.23.22-.34.39-.34.51v.06c0 .18.12.27.34.27h2.1c.23 0 .34-.09.34-.27v-.06a.5.5 0 00-.2-.33 2.19 2.19 0 01-.36-.39.54.54 0 01-.05-.5l.32-.88h3.6l.31.88a.51.51 0 010 .5 1.82 1.82 0 01-.35.39.48.48 0 00-.21.33v.06q0 .27.33.27h3.68c.22 0 .34-.09.34-.27v-.06c0-.13-.12-.3-.34-.51a2.21 2.21 0 01-.49-.71zm-14 7.5a7.68 7.68 0 01-1.22-2.41 8.88 8.88 0 01-.46-2.77 2.46 2.46 0 01.42-1.54 1.4 1.4 0 011.17-.54 2.14 2.14 0 011.6 1 8.23 8.23 0 011.24 2.5 8.93 8.93 0 01.45 2.66 2.38 2.38 0 01-.42 1.49 1.42 1.42 0 01-1.19.54 2.14 2.14 0 01-1.59-1m4.4.62a5 5 0 001.43-3.61 5.13 5.13 0 00-1.46-3.75 5.09 5.09 0 00-7.17 0A5.22 5.22 0 00152 48a5 5 0 005 5.12 4.84 4.84 0 003.55-1.42m-17.09-7.07a.9.9 0 01.15-.53.45.45 0 01.39-.2h.25a1.62 1.62 0 011.26.69 2.78 2.78 0 01.56 1.79 2.23 2.23 0 01-.36 1.38 1.14 1.14 0 01-.93.45h-.43a.84.84 0 01-.67-.25 1.24 1.24 0 01-.22-.84zm3.54 4.19a3 3 0 001.32-1.14 2.84 2.84 0 00.45-1.53 2.79 2.79 0 00-1.16-2.39 5.37 5.37 0 00-3.14-.82h-3.82c-.22 0-.34.09-.34.27v.06a1.1 1.1 0 00.29.52 1.08 1.08 0 01.28.7v7a1.13 1.13 0 01-.28.71 1 1 0 00-.29.51v.06c0 .18.12.27.34.27h3.13c.22 0 .34-.09.34-.27v-.06c0-.11-.11-.28-.32-.51a1 1 0 01-.32-.71v-2.23h1.3l1.22 2.21c.09.26.12.44.06.54a1.83 1.83 0 01-.24.35.55.55 0 00-.18.33v.06c0 .18.12.27.35.27h3.46c.23 0 .34-.09.34-.27v-.06a.38.38 0 00-.16-.3l-.44-.37a2.13 2.13 0 01-.49-.55zM131.61 53a.46.46 0 00.34-.11.52.52 0 00.15-.35l.32-1.85a.46.46 0 00-.06-.3.29.29 0 00-.24-.13H132a.76.76 0 00-.55.28 2.9 2.9 0 00-.44.6 2.49 2.49 0 01-.48.6.87.87 0 01-.63.28h-1.5a.7.7 0 01-.65-.31 1.23 1.23 0 01-.2-.73v-2.59H129a.68.68 0 01.45.17 1.44 1.44 0 01.3.37 1.81 1.81 0 00.24.37.34.34 0 00.26.17h.11c.19 0 .29-.11.29-.33v-2.55c0-.22-.1-.33-.29-.33h-.11a.33.33 0 00-.26.18 2 2 0 00-.24.39 1.36 1.36 0 01-.3.39.64.64 0 01-.45.18h-1.49v-2.78c0-.47.21-.7.64-.7h1.25a1.09 1.09 0 01.66.26 3.05 3.05 0 01.52.57 4.26 4.26 0 00.48.57.8.8 0 00.55.26h.07a.4.4 0 00.29-.11.42.42 0 00.07-.3l-.34-1.79a.63.63 0 00-.15-.34.48.48 0 00-.34-.1h-6.5c-.22 0-.32.09-.32.27v.06a1 1 0 00.28.52 1.11 1.11 0 01.28.71v7a1.15 1.15 0 01-.28.72 1 1 0 00-.28.51v.06c0 .18.11.27.34.27zm-10.9 0a.47.47 0 00.49-.46l.37-2.19c.05-.24 0-.36-.28-.36h-.2c-.14 0-.29.1-.44.31a3.65 3.65 0 00-.4.7 2.25 2.25 0 01-.51.69 1.07 1.07 0 01-.74.31h-1.48a.58.58 0 01-.52-.27 1.16 1.16 0 01-.18-.66v-6.58a1 1 0 01.32-.7c.22-.24.32-.41.32-.52v-.06c0-.18-.11-.27-.34-.27H114c-.23 0-.34.09-.34.27v.06a1 1 0 00.28.52 1.1 1.1 0 01.29.7v7a1.14 1.14 0 01-.29.71 1 1 0 00-.28.51v.06c0 .18.11.27.34.27zm-11.16-.9a3.66 3.66 0 001.08-2.51.37.37 0 00-.28-.42.46.46 0 00-.5.17c-.14.2-.27.36-.38.49a2.83 2.83 0 01-.46.46 2.34 2.34 0 01-.7.41 2.63 2.63 0 01-.86.14 2.79 2.79 0 01-2.23-1.28 5.37 5.37 0 01-1-3.29 2.94 2.94 0 01.5-1.8 1.48 1.48 0 011.21-.67 1.29 1.29 0 01.83.29 2.64 2.64 0 01.62.71l.51.83a2.37 2.37 0 00.63.71 1.39 1.39 0 00.86.29 1.17 1.17 0 00.86-.32 1 1 0 00.32-.8 2.27 2.27 0 00-1.22-1.91 5.1 5.1 0 00-2.89-.81 4.42 4.42 0 00-3.42 1.43 5.15 5.15 0 00-1.31 3.61 5.47 5.47 0 001.4 3.72 4.43 4.43 0 003.47 1.59 4 4 0 002.92-1m-12.11-9.2c-.22 0-.34.09-.34.27v.06q0 .15.24.33a2 2 0 01.38.39.44.44 0 010 .5L95.8 47.9l-1.89-3.41a.44.44 0 010-.48 1.74 1.74 0 01.37-.4.47.47 0 00.23-.34v-.06c0-.18-.11-.27-.34-.27h-3.83c-.23 0-.35.09-.35.27v.06a.45.45 0 00.15.32c.09.1.22.22.39.38a2.7 2.7 0 01.44.52l2.87 4.63v2.35a1.13 1.13 0 01-.28.71 1 1 0 00-.29.51v.06c0 .18.12.27.34.27h3.13c.22 0 .34-.09.34-.27v-.06c0-.11-.11-.28-.32-.51a1.12 1.12 0 01-.31-.71v-2.58l2.46-4.4a2.58 2.58 0 01.56-.7c.25-.21.37-.39.37-.52v-.06c0-.18-.1-.27-.32-.27zm-10.74 9.18a3.62 3.62 0 001.09-2.51.37.37 0 00-.28-.42.46.46 0 00-.5.17c-.14.2-.27.36-.38.49a2.83 2.83 0 01-.46.46 2.34 2.34 0 01-.7.41 2.63 2.63 0 01-.86.14 2.79 2.79 0 01-2.23-1.28 5.37 5.37 0 01-1-3.29 2.94 2.94 0 01.5-1.8 1.48 1.48 0 011.22-.67 1.31 1.31 0 01.83.29 2.79 2.79 0 01.61.71l.51.83a2.37 2.37 0 00.63.71 1.4 1.4 0 00.87.29 1.16 1.16 0 00.85-.32 1 1 0 00.32-.8 2.27 2.27 0 00-1.22-1.91 5.1 5.1 0 00-2.89-.81 4.42 4.42 0 00-3.42 1.43 5.15 5.15 0 00-1.31 3.61 5.47 5.47 0 001.4 3.72 4.43 4.43 0 003.47 1.59 3.91 3.91 0 002.91-1m-16.23-7.49a.9.9 0 01.15-.53.45.45 0 01.39-.2h.26a1.6 1.6 0 011.25.69 2.72 2.72 0 01.56 1.79 2.23 2.23 0 01-.37 1.38 1.14 1.14 0 01-.93.45h-.42a.85.85 0 01-.68-.25 1.3 1.3 0 01-.22-.84zm3.52 4.15a3 3 0 001.32-1.14 2.77 2.77 0 00.46-1.53 2.79 2.79 0 00-1.17-2.39 5.33 5.33 0 00-3.13-.82h-3.82c-.23 0-.34.09-.34.27v.06a1 1 0 00.28.52 1.1 1.1 0 01.29.7v7a1.14 1.14 0 01-.29.71 1 1 0 00-.28.51v.06c0 .18.11.27.34.27h3.12c.23 0 .34-.09.34-.27v-.06c0-.11-.1-.28-.32-.51a1.09 1.09 0 01-.32-.71v-2.23h1.31l1.21 2.24a.79.79 0 01.09.5 2 2 0 01-.25.35.58.58 0 00-.17.33v.06c0 .18.11.27.34.27h3.47c.22 0 .34-.09.34-.27v-.06a.41.41 0 00-.16-.3l-.48-.38a2.58 2.58 0 01-.49-.55zm-15.53 2.3a7.49 7.49 0 01-1.23-2.41 9.16 9.16 0 01-.45-2.77 2.46 2.46 0 01.42-1.54 1.4 1.4 0 011.17-.54 2.11 2.11 0 011.59 1 8.25 8.25 0 011.25 2.5 8.93 8.93 0 01.45 2.66 2.32 2.32 0 01-.43 1.49 1.42 1.42 0 01-1.15.59 2.12 2.12 0 01-1.58-1m4.4.62a5 5 0 001.44-3.69 5.14 5.14 0 00-1.47-3.75 5.09 5.09 0 00-7.17 0A5.26 5.26 0 0054.2 48a5 5 0 005 5.12 4.86 4.86 0 003.56-1.42M48.92 53c.23 0 .34-.09.34-.27v-.06a1 1 0 00-.31-.51 1.1 1.1 0 01-.3-.71V44h.74a.81.81 0 01.59.27 2 2 0 01.43.59 3.82 3.82 0 00.37.58.57.57 0 00.43.27h.24a.37.37 0 00.28-.1.32.32 0 00.07-.29l-.3-1.95a.45.45 0 00-.48-.44h-7.29a.44.44 0 00-.49.44L43 45.31c0 .28.09.41.35.41h.25a.57.57 0 00.42-.27 3.13 3.13 0 00.36-.58 2.16 2.16 0 01.41-.59.83.83 0 01.59-.27h.76v7.46a1.12 1.12 0 01-.31.71 1 1 0 00-.31.51v.06q0 .27.33.27zm-14.2-1.9a7.49 7.49 0 01-1.23-2.41 9.16 9.16 0 01-.49-2.75 2.46 2.46 0 01.42-1.54 1.4 1.4 0 011.17-.54 2.11 2.11 0 011.59 1 8.25 8.25 0 011.25 2.5 8.93 8.93 0 01.45 2.66 2.32 2.32 0 01-.43 1.49 1.42 1.42 0 01-1.19.54 2.12 2.12 0 01-1.58-1m4.4.62a5 5 0 001.44-3.69 5.14 5.14 0 00-1.47-3.75 5.09 5.09 0 00-7.17 0A5.26 5.26 0 0030.54 48 4.9 4.9 0 0032 51.71a5.11 5.11 0 007.1 0m-12.89-7.18a.88.88 0 01.24-.75 1.14 1.14 0 00.31-.51v-.06c0-.18-.1-.27-.32-.27h-1.93a.74.74 0 00-.74.54l-2 6-2.05-6a.75.75 0 00-.77-.51h-1.86q-.33 0-.33.27v.06a1.08 1.08 0 00.3.51.86.86 0 01.25.72l-1.08 7a1.47 1.47 0 01-.32.7 1.08 1.08 0 00-.26.53v.06c0 .18.12.27.34.27h1.76c.23 0 .34-.09.34-.27v-.06a1.07 1.07 0 00-.28-.51.91.91 0 01-.23-.72l.77-5.18 2.48 6.33a.63.63 0 00.6.4.53.53 0 00.51-.42l2.17-6.08.85 5a.87.87 0 01-.21.73 1.1 1.1 0 00-.28.5v.06c0 .18.11.27.34.27h3c.22 0 .34-.09.34-.27v-.06a1.08 1.08 0 00-.26-.53 1.69 1.69 0 01-.32-.7z" fill="#fff" ></path></g></g></svg>